ISO-10303-21;
HEADER;
/* Generated by software containing ST-Developer
 * from STEP Tools, Inc. (www.steptools.com) 
 */
/* OPTION: using custom renumber hook */

FILE_DESCRIPTION(
/* description */ ('STEP AP242 Edition 2',
'CAx-IF Rec.Pracs.---Representation and Presentation of Product Manufa
cturing Information (PMI)---4.0---2014-10-13',
'CAx-IF Rec.Pracs.---3D Tessellated Geometry---0.4---2014-09-14','2;1',
'CAx-IF Rec.Pracs.---User Defined Attributes---1.5---2016-08-15'),
/* implementation_level */ '2;1');

FILE_NAME(
/* name */ 'Toolhead+Front - Part 2',
/* time_stamp */ '2026-08-09T10:22:06Z',
/* author */ (''),
/* organization */ (''),
/* preprocessor_version */ 'ST-DEVELOPER v20',
/* originating_system */ 'ONSHAPE BY PTC INC, 1.219',
/* authorisation */ '  ');

FILE_SCHEMA (('AP242_MANAGED_MODEL_BASED_3D_ENGINEERING_MIM_LF { 1 0 10303 442 3 1 4 }'));
ENDSEC;

DATA;
#10=SHAPE_REPRESENTATION_RELATIONSHIP('','',#581,#11);
#11=ADVANCED_BREP_SHAPE_REPRESENTATION('',(#579),#993);
#12=TOROIDAL_SURFACE('',#647,0.0045,0.001);
#13=TOROIDAL_SURFACE('',#648,0.0045,0.001);
#14=CIRCLE('',#591,0.000825);
#15=CIRCLE('',#592,0.000825);
#16=CIRCLE('',#594,0.000875);
#17=CIRCLE('',#595,0.000875);
#18=CIRCLE('',#597,0.000875);
#19=CIRCLE('',#598,0.000875);
#20=CIRCLE('',#601,0.000875);
#21=CIRCLE('',#602,0.000875);
#22=CIRCLE('',#604,0.0117168408623972);
#23=CIRCLE('',#605,0.0045);
#24=CIRCLE('',#606,0.0045);
#25=CIRCLE('',#607,0.0019);
#26=CIRCLE('',#608,0.0019);
#27=CIRCLE('',#609,0.0019);
#28=CIRCLE('',#610,0.0019);
#29=CIRCLE('',#611,0.0019);
#30=CIRCLE('',#612,0.0019);
#31=CIRCLE('',#613,0.0019);
#32=CIRCLE('',#615,0.0117168408623972);
#33=CIRCLE('',#616,0.0023625);
#34=CIRCLE('',#617,0.0023625);
#35=CIRCLE('',#618,0.0019);
#36=CIRCLE('',#619,0.0019);
#37=CIRCLE('',#620,0.0019);
#38=CIRCLE('',#621,0.0019);
#39=CIRCLE('',#622,0.0019);
#40=CIRCLE('',#623,0.0019);
#41=CIRCLE('',#624,0.0019);
#42=CIRCLE('',#625,0.0019);
#43=CIRCLE('',#628,0.0019);
#44=CIRCLE('',#636,0.0023625);
#45=CIRCLE('',#638,0.0035);
#46=CIRCLE('',#639,0.0035);
#47=CIRCLE('',#642,0.0035);
#48=CIRCLE('',#643,0.0035);
#49=CIRCLE('',#645,0.0023625);
#50=CYLINDRICAL_SURFACE('',#590,0.000825);
#51=CYLINDRICAL_SURFACE('',#593,0.000875);
#52=CYLINDRICAL_SURFACE('',#596,0.000875);
#53=CYLINDRICAL_SURFACE('',#600,0.000875);
#54=CYLINDRICAL_SURFACE('',#626,0.0019);
#55=CYLINDRICAL_SURFACE('',#627,0.0019);
#56=CYLINDRICAL_SURFACE('',#629,0.0019);
#57=CYLINDRICAL_SURFACE('',#630,0.0019);
#58=CYLINDRICAL_SURFACE('',#631,0.0019);
#59=CYLINDRICAL_SURFACE('',#632,0.0019);
#60=CYLINDRICAL_SURFACE('',#633,0.0019);
#61=CYLINDRICAL_SURFACE('',#634,0.0019);
#62=CYLINDRICAL_SURFACE('',#635,0.0023625);
#63=CYLINDRICAL_SURFACE('',#637,0.0035);
#64=CYLINDRICAL_SURFACE('',#641,0.0035);
#65=CYLINDRICAL_SURFACE('',#644,0.0023625);
#66=CYLINDRICAL_SURFACE('',#649,0.0117168408623972);
#67=B_SPLINE_CURVE_WITH_KNOTS('',3,(#830,#831,#832,#833,#834),
 .UNSPECIFIED.,.F.,.F.,(4,1,4),(0.,0.00087774068872382,0.00175548137744764),
 .UNSPECIFIED.);
#68=B_SPLINE_CURVE_WITH_KNOTS('',3,(#916,#917,#918,#919),.UNSPECIFIED.,
 .F.,.F.,(4,4),(0.,0.000183506474795883),.UNSPECIFIED.);
#69=B_SPLINE_CURVE_WITH_KNOTS('',3,(#962,#963,#964,#965),.UNSPECIFIED.,
 .F.,.F.,(4,4),(0.,0.00141569749135125),.UNSPECIFIED.);
#70=ORIENTED_EDGE('',*,*,#218,.T.);
#71=ORIENTED_EDGE('',*,*,#219,.T.);
#72=ORIENTED_EDGE('',*,*,#220,.F.);
#73=ORIENTED_EDGE('',*,*,#221,.T.);
#74=ORIENTED_EDGE('',*,*,#222,.F.);
#75=ORIENTED_EDGE('',*,*,#223,.F.);
#76=ORIENTED_EDGE('',*,*,#224,.T.);
#77=ORIENTED_EDGE('',*,*,#225,.T.);
#78=ORIENTED_EDGE('',*,*,#226,.T.);
#79=ORIENTED_EDGE('',*,*,#227,.F.);
#80=ORIENTED_EDGE('',*,*,#228,.T.);
#81=ORIENTED_EDGE('',*,*,#229,.T.);
#82=ORIENTED_EDGE('',*,*,#230,.T.);
#83=ORIENTED_EDGE('',*,*,#231,.F.);
#84=ORIENTED_EDGE('',*,*,#232,.T.);
#85=ORIENTED_EDGE('',*,*,#233,.T.);
#86=ORIENTED_EDGE('',*,*,#234,.T.);
#87=ORIENTED_EDGE('',*,*,#235,.F.);
#88=ORIENTED_EDGE('',*,*,#236,.T.);
#89=ORIENTED_EDGE('',*,*,#237,.F.);
#90=ORIENTED_EDGE('',*,*,#238,.T.);
#91=ORIENTED_EDGE('',*,*,#239,.T.);
#92=ORIENTED_EDGE('',*,*,#240,.T.);
#93=ORIENTED_EDGE('',*,*,#241,.T.);
#94=ORIENTED_EDGE('',*,*,#242,.T.);
#95=ORIENTED_EDGE('',*,*,#243,.F.);
#96=ORIENTED_EDGE('',*,*,#244,.T.);
#97=ORIENTED_EDGE('',*,*,#245,.T.);
#98=ORIENTED_EDGE('',*,*,#246,.T.);
#99=ORIENTED_EDGE('',*,*,#247,.F.);
#100=ORIENTED_EDGE('',*,*,#248,.T.);
#101=ORIENTED_EDGE('',*,*,#249,.T.);
#102=ORIENTED_EDGE('',*,*,#250,.F.);
#103=ORIENTED_EDGE('',*,*,#251,.T.);
#104=ORIENTED_EDGE('',*,*,#252,.F.);
#105=ORIENTED_EDGE('',*,*,#253,.T.);
#106=ORIENTED_EDGE('',*,*,#254,.F.);
#107=ORIENTED_EDGE('',*,*,#255,.F.);
#108=ORIENTED_EDGE('',*,*,#256,.T.);
#109=ORIENTED_EDGE('',*,*,#257,.T.);
#110=ORIENTED_EDGE('',*,*,#258,.T.);
#111=ORIENTED_EDGE('',*,*,#259,.T.);
#112=ORIENTED_EDGE('',*,*,#260,.F.);
#113=ORIENTED_EDGE('',*,*,#261,.T.);
#114=ORIENTED_EDGE('',*,*,#262,.F.);
#115=ORIENTED_EDGE('',*,*,#263,.T.);
#116=ORIENTED_EDGE('',*,*,#258,.F.);
#117=ORIENTED_EDGE('',*,*,#264,.T.);
#118=ORIENTED_EDGE('',*,*,#220,.T.);
#119=ORIENTED_EDGE('',*,*,#265,.T.);
#120=ORIENTED_EDGE('',*,*,#225,.F.);
#121=ORIENTED_EDGE('',*,*,#266,.T.);
#122=ORIENTED_EDGE('',*,*,#229,.F.);
#123=ORIENTED_EDGE('',*,*,#267,.T.);
#124=ORIENTED_EDGE('',*,*,#235,.T.);
#125=ORIENTED_EDGE('',*,*,#268,.T.);
#126=ORIENTED_EDGE('',*,*,#239,.F.);
#127=ORIENTED_EDGE('',*,*,#269,.T.);
#128=ORIENTED_EDGE('',*,*,#243,.T.);
#129=ORIENTED_EDGE('',*,*,#270,.T.);
#130=ORIENTED_EDGE('',*,*,#247,.T.);
#131=ORIENTED_EDGE('',*,*,#271,.T.);
#132=ORIENTED_EDGE('',*,*,#253,.F.);
#133=ORIENTED_EDGE('',*,*,#251,.F.);
#134=ORIENTED_EDGE('',*,*,#249,.F.);
#135=ORIENTED_EDGE('',*,*,#260,.T.);
#136=ORIENTED_EDGE('',*,*,#272,.F.);
#137=ORIENTED_EDGE('',*,*,#273,.T.);
#138=ORIENTED_EDGE('',*,*,#274,.T.);
#139=ORIENTED_EDGE('',*,*,#227,.T.);
#140=ORIENTED_EDGE('',*,*,#275,.T.);
#141=ORIENTED_EDGE('',*,*,#218,.F.);
#142=ORIENTED_EDGE('',*,*,#276,.T.);
#143=ORIENTED_EDGE('',*,*,#255,.T.);
#144=ORIENTED_EDGE('',*,*,#277,.T.);
#145=ORIENTED_EDGE('',*,*,#245,.F.);
#146=ORIENTED_EDGE('',*,*,#278,.T.);
#147=ORIENTED_EDGE('',*,*,#241,.F.);
#148=ORIENTED_EDGE('',*,*,#279,.T.);
#149=ORIENTED_EDGE('',*,*,#237,.T.);
#150=ORIENTED_EDGE('',*,*,#280,.T.);
#151=ORIENTED_EDGE('',*,*,#233,.F.);
#152=ORIENTED_EDGE('',*,*,#281,.T.);
#153=ORIENTED_EDGE('',*,*,#231,.T.);
#154=ORIENTED_EDGE('',*,*,#282,.T.);
#155=ORIENTED_EDGE('',*,*,#254,.T.);
#156=ORIENTED_EDGE('',*,*,#252,.T.);
#157=ORIENTED_EDGE('',*,*,#250,.T.);
#158=ORIENTED_EDGE('',*,*,#261,.F.);
#159=ORIENTED_EDGE('',*,*,#265,.F.);
#160=ORIENTED_EDGE('',*,*,#219,.F.);
#161=ORIENTED_EDGE('',*,*,#275,.F.);
#162=ORIENTED_EDGE('',*,*,#226,.F.);
#163=ORIENTED_EDGE('',*,*,#283,.T.);
#164=ORIENTED_EDGE('',*,*,#284,.T.);
#165=ORIENTED_EDGE('',*,*,#256,.F.);
#166=ORIENTED_EDGE('',*,*,#276,.F.);
#167=ORIENTED_EDGE('',*,*,#224,.F.);
#168=ORIENTED_EDGE('',*,*,#285,.F.);
#169=ORIENTED_EDGE('',*,*,#271,.F.);
#170=ORIENTED_EDGE('',*,*,#246,.F.);
#171=ORIENTED_EDGE('',*,*,#277,.F.);
#172=ORIENTED_EDGE('',*,*,#259,.F.);
#173=ORIENTED_EDGE('',*,*,#270,.F.);
#174=ORIENTED_EDGE('',*,*,#242,.F.);
#175=ORIENTED_EDGE('',*,*,#278,.F.);
#176=ORIENTED_EDGE('',*,*,#248,.F.);
#177=ORIENTED_EDGE('',*,*,#269,.F.);
#178=ORIENTED_EDGE('',*,*,#238,.F.);
#179=ORIENTED_EDGE('',*,*,#279,.F.);
#180=ORIENTED_EDGE('',*,*,#244,.F.);
#181=ORIENTED_EDGE('',*,*,#266,.F.);
#182=ORIENTED_EDGE('',*,*,#228,.F.);
#183=ORIENTED_EDGE('',*,*,#282,.F.);
#184=ORIENTED_EDGE('',*,*,#230,.F.);
#185=ORIENTED_EDGE('',*,*,#268,.F.);
#186=ORIENTED_EDGE('',*,*,#234,.F.);
#187=ORIENTED_EDGE('',*,*,#280,.F.);
#188=ORIENTED_EDGE('',*,*,#240,.F.);
#189=ORIENTED_EDGE('',*,*,#267,.F.);
#190=ORIENTED_EDGE('',*,*,#232,.F.);
#191=ORIENTED_EDGE('',*,*,#281,.F.);
#192=ORIENTED_EDGE('',*,*,#236,.F.);
#193=ORIENTED_EDGE('',*,*,#286,.T.);
#194=ORIENTED_EDGE('',*,*,#273,.F.);
#195=ORIENTED_EDGE('',*,*,#287,.T.);
#196=ORIENTED_EDGE('',*,*,#288,.F.);
#197=ORIENTED_EDGE('',*,*,#286,.F.);
#198=ORIENTED_EDGE('',*,*,#288,.T.);
#199=ORIENTED_EDGE('',*,*,#222,.T.);
#200=ORIENTED_EDGE('',*,*,#289,.T.);
#201=ORIENTED_EDGE('',*,*,#283,.F.);
#202=ORIENTED_EDGE('',*,*,#290,.F.);
#203=ORIENTED_EDGE('',*,*,#291,.T.);
#204=ORIENTED_EDGE('',*,*,#274,.F.);
#205=ORIENTED_EDGE('',*,*,#291,.F.);
#206=ORIENTED_EDGE('',*,*,#223,.T.);
#207=ORIENTED_EDGE('',*,*,#290,.T.);
#208=ORIENTED_EDGE('',*,*,#285,.T.);
#209=ORIENTED_EDGE('',*,*,#263,.F.);
#210=ORIENTED_EDGE('',*,*,#287,.F.);
#211=ORIENTED_EDGE('',*,*,#221,.F.);
#212=ORIENTED_EDGE('',*,*,#264,.F.);
#213=ORIENTED_EDGE('',*,*,#257,.F.);
#214=ORIENTED_EDGE('',*,*,#284,.F.);
#215=ORIENTED_EDGE('',*,*,#289,.F.);
#216=ORIENTED_EDGE('',*,*,#272,.T.);
#217=ORIENTED_EDGE('',*,*,#262,.T.);
#218=EDGE_CURVE('',#292,#293,#347,.T.);
#219=EDGE_CURVE('',#293,#294,#348,.F.);
#220=EDGE_CURVE('',#295,#294,#349,.T.);
#221=EDGE_CURVE('',#295,#296,#67,.T.);
#222=EDGE_CURVE('',#297,#296,#350,.T.);
#223=EDGE_CURVE('',#298,#297,#351,.T.);
#224=EDGE_CURVE('',#298,#292,#352,.T.);
#225=EDGE_CURVE('',#299,#300,#353,.T.);
#226=EDGE_CURVE('',#300,#301,#354,.T.);
#227=EDGE_CURVE('',#302,#301,#355,.T.);
#228=EDGE_CURVE('',#302,#299,#356,.F.);
#229=EDGE_CURVE('',#303,#304,#357,.T.);
#230=EDGE_CURVE('',#304,#305,#358,.T.);
#231=EDGE_CURVE('',#306,#305,#359,.T.);
#232=EDGE_CURVE('',#306,#303,#360,.F.);
#233=EDGE_CURVE('',#307,#308,#361,.T.);
#234=EDGE_CURVE('',#308,#309,#362,.F.);
#235=EDGE_CURVE('',#310,#309,#363,.T.);
#236=EDGE_CURVE('',#310,#307,#364,.T.);
#237=EDGE_CURVE('',#311,#312,#365,.T.);
#238=EDGE_CURVE('',#311,#313,#366,.F.);
#239=EDGE_CURVE('',#313,#314,#367,.T.);
#240=EDGE_CURVE('',#314,#312,#368,.T.);
#241=EDGE_CURVE('',#315,#316,#369,.T.);
#242=EDGE_CURVE('',#316,#317,#370,.F.);
#243=EDGE_CURVE('',#318,#317,#371,.T.);
#244=EDGE_CURVE('',#318,#315,#372,.T.);
#245=EDGE_CURVE('',#319,#320,#373,.T.);
#246=EDGE_CURVE('',#320,#321,#374,.F.);
#247=EDGE_CURVE('',#322,#321,#375,.T.);
#248=EDGE_CURVE('',#322,#319,#376,.T.);
#249=EDGE_CURVE('',#323,#323,#14,.T.);
#250=EDGE_CURVE('',#324,#324,#15,.T.);
#251=EDGE_CURVE('',#325,#325,#16,.T.);
#252=EDGE_CURVE('',#326,#326,#17,.T.);
#253=EDGE_CURVE('',#327,#327,#18,.T.);
#254=EDGE_CURVE('',#328,#328,#19,.T.);
#255=EDGE_CURVE('',#329,#330,#377,.T.);
#256=EDGE_CURVE('',#329,#331,#378,.F.);
#257=EDGE_CURVE('',#331,#332,#68,.T.);
#258=EDGE_CURVE('',#332,#333,#379,.T.);
#259=EDGE_CURVE('',#333,#330,#380,.T.);
#260=EDGE_CURVE('',#334,#334,#20,.F.);
#261=EDGE_CURVE('',#335,#335,#21,.F.);
#262=EDGE_CURVE('',#336,#336,#22,.T.);
#263=EDGE_CURVE('',#337,#337,#23,.F.);
#264=EDGE_CURVE('',#332,#295,#24,.F.);
#265=EDGE_CURVE('',#294,#300,#25,.T.);
#266=EDGE_CURVE('',#299,#304,#26,.T.);
#267=EDGE_CURVE('',#303,#310,#27,.T.);
#268=EDGE_CURVE('',#309,#314,#28,.T.);
#269=EDGE_CURVE('',#313,#318,#29,.T.);
#270=EDGE_CURVE('',#317,#322,#30,.T.);
#271=EDGE_CURVE('',#321,#333,#31,.F.);
#272=EDGE_CURVE('',#338,#338,#32,.F.);
#273=EDGE_CURVE('',#339,#339,#33,.T.);
#274=EDGE_CURVE('',#340,#340,#34,.T.);
#275=EDGE_CURVE('',#301,#293,#35,.F.);
#276=EDGE_CURVE('',#292,#329,#36,.T.);
#277=EDGE_CURVE('',#330,#320,#37,.T.);
#278=EDGE_CURVE('',#319,#316,#38,.F.);
#279=EDGE_CURVE('',#315,#311,#39,.F.);
#280=EDGE_CURVE('',#312,#308,#40,.F.);
#281=EDGE_CURVE('',#307,#306,#41,.F.);
#282=EDGE_CURVE('',#305,#302,#42,.F.);
#283=EDGE_CURVE('',#341,#342,#381,.T.);
#284=EDGE_CURVE('',#342,#331,#69,.T.);
#285=EDGE_CURVE('',#341,#298,#43,.F.);
#286=EDGE_CURVE('',#343,#343,#44,.T.);
#287=EDGE_CURVE('',#344,#344,#45,.T.);
#288=EDGE_CURVE('',#345,#345,#46,.T.);
#289=EDGE_CURVE('',#296,#342,#47,.T.);
#290=EDGE_CURVE('',#297,#341,#48,.T.);
#291=EDGE_CURVE('',#346,#346,#49,.T.);
#292=VERTEX_POINT('',#824);
#293=VERTEX_POINT('',#825);
#294=VERTEX_POINT('',#827);
#295=VERTEX_POINT('',#829);
#296=VERTEX_POINT('',#835);
#297=VERTEX_POINT('',#837);
#298=VERTEX_POINT('',#839);
#299=VERTEX_POINT('',#843);
#300=VERTEX_POINT('',#844);
#301=VERTEX_POINT('',#846);
#302=VERTEX_POINT('',#848);
#303=VERTEX_POINT('',#852);
#304=VERTEX_POINT('',#853);
#305=VERTEX_POINT('',#855);
#306=VERTEX_POINT('',#857);
#307=VERTEX_POINT('',#861);
#308=VERTEX_POINT('',#862);
#309=VERTEX_POINT('',#864);
#310=VERTEX_POINT('',#866);
#311=VERTEX_POINT('',#870);
#312=VERTEX_POINT('',#871);
#313=VERTEX_POINT('',#873);
#314=VERTEX_POINT('',#875);
#315=VERTEX_POINT('',#879);
#316=VERTEX_POINT('',#880);
#317=VERTEX_POINT('',#882);
#318=VERTEX_POINT('',#884);
#319=VERTEX_POINT('',#888);
#320=VERTEX_POINT('',#889);
#321=VERTEX_POINT('',#891);
#322=VERTEX_POINT('',#893);
#323=VERTEX_POINT('',#897);
#324=VERTEX_POINT('',#899);
#325=VERTEX_POINT('',#902);
#326=VERTEX_POINT('',#904);
#327=VERTEX_POINT('',#907);
#328=VERTEX_POINT('',#909);
#329=VERTEX_POINT('',#912);
#330=VERTEX_POINT('',#913);
#331=VERTEX_POINT('',#915);
#332=VERTEX_POINT('',#920);
#333=VERTEX_POINT('',#922);
#334=VERTEX_POINT('',#926);
#335=VERTEX_POINT('',#928);
#336=VERTEX_POINT('',#931);
#337=VERTEX_POINT('',#933);
#338=VERTEX_POINT('',#944);
#339=VERTEX_POINT('',#946);
#340=VERTEX_POINT('',#948);
#341=VERTEX_POINT('',#960);
#342=VERTEX_POINT('',#961);
#343=VERTEX_POINT('',#975);
#344=VERTEX_POINT('',#978);
#345=VERTEX_POINT('',#980);
#346=VERTEX_POINT('',#987);
#347=LINE('',#823,#382);
#348=LINE('',#826,#383);
#349=LINE('',#828,#384);
#350=LINE('',#836,#385);
#351=LINE('',#838,#386);
#352=LINE('',#840,#387);
#353=LINE('',#842,#388);
#354=LINE('',#845,#389);
#355=LINE('',#847,#390);
#356=LINE('',#849,#391);
#357=LINE('',#851,#392);
#358=LINE('',#854,#393);
#359=LINE('',#856,#394);
#360=LINE('',#858,#395);
#361=LINE('',#860,#396);
#362=LINE('',#863,#397);
#363=LINE('',#865,#398);
#364=LINE('',#867,#399);
#365=LINE('',#869,#400);
#366=LINE('',#872,#401);
#367=LINE('',#874,#402);
#368=LINE('',#876,#403);
#369=LINE('',#878,#404);
#370=LINE('',#881,#405);
#371=LINE('',#883,#406);
#372=LINE('',#885,#407);
#373=LINE('',#887,#408);
#374=LINE('',#890,#409);
#375=LINE('',#892,#410);
#376=LINE('',#894,#411);
#377=LINE('',#911,#412);
#378=LINE('',#914,#413);
#379=LINE('',#921,#414);
#380=LINE('',#923,#415);
#381=LINE('',#959,#416);
#382=VECTOR('',#654,1.);
#383=VECTOR('',#655,1.);
#384=VECTOR('',#656,1.);
#385=VECTOR('',#657,1.);
#386=VECTOR('',#658,1.);
#387=VECTOR('',#659,1.);
#388=VECTOR('',#662,1.);
#389=VECTOR('',#663,1.);
#390=VECTOR('',#664,1.);
#391=VECTOR('',#665,1.);
#392=VECTOR('',#668,1.);
#393=VECTOR('',#669,1.);
#394=VECTOR('',#670,1.);
#395=VECTOR('',#671,1.);
#396=VECTOR('',#674,1.);
#397=VECTOR('',#675,1.);
#398=VECTOR('',#676,1.);
#399=VECTOR('',#677,1.);
#400=VECTOR('',#680,1.);
#401=VECTOR('',#681,1.);
#402=VECTOR('',#682,1.);
#403=VECTOR('',#683,1.);
#404=VECTOR('',#686,1.);
#405=VECTOR('',#687,1.);
#406=VECTOR('',#688,1.);
#407=VECTOR('',#689,1.);
#408=VECTOR('',#692,1.);
#409=VECTOR('',#693,1.);
#410=VECTOR('',#694,1.);
#411=VECTOR('',#695,1.);
#412=VECTOR('',#716,1.);
#413=VECTOR('',#717,1.);
#414=VECTOR('',#718,1.);
#415=VECTOR('',#719,1.);
#416=VECTOR('',#776,1.);
#417=EDGE_LOOP('',(#70,#71,#72,#73,#74,#75,#76));
#418=EDGE_LOOP('',(#77,#78,#79,#80));
#419=EDGE_LOOP('',(#81,#82,#83,#84));
#420=EDGE_LOOP('',(#85,#86,#87,#88));
#421=EDGE_LOOP('',(#89,#90,#91,#92));
#422=EDGE_LOOP('',(#93,#94,#95,#96));
#423=EDGE_LOOP('',(#97,#98,#99,#100));
#424=EDGE_LOOP('',(#101));
#425=EDGE_LOOP('',(#102));
#426=EDGE_LOOP('',(#103));
#427=EDGE_LOOP('',(#104));
#428=EDGE_LOOP('',(#105));
#429=EDGE_LOOP('',(#106));
#430=EDGE_LOOP('',(#107,#108,#109,#110,#111));
#431=EDGE_LOOP('',(#112));
#432=EDGE_LOOP('',(#113));
#433=EDGE_LOOP('',(#114));
#434=EDGE_LOOP('',(#115));
#435=EDGE_LOOP('',(#116,#117,#118,#119,#120,#121,#122,#123,#124,#125,#126,
#127,#128,#129,#130,#131));
#436=EDGE_LOOP('',(#132));
#437=EDGE_LOOP('',(#133));
#438=EDGE_LOOP('',(#134));
#439=EDGE_LOOP('',(#135));
#440=EDGE_LOOP('',(#136));
#441=EDGE_LOOP('',(#137));
#442=EDGE_LOOP('',(#138));
#443=EDGE_LOOP('',(#139,#140,#141,#142,#143,#144,#145,#146,#147,#148,#149,
#150,#151,#152,#153,#154));
#444=EDGE_LOOP('',(#155));
#445=EDGE_LOOP('',(#156));
#446=EDGE_LOOP('',(#157));
#447=EDGE_LOOP('',(#158));
#448=EDGE_LOOP('',(#159,#160,#161,#162));
#449=EDGE_LOOP('',(#163,#164,#165,#166,#167,#168));
#450=EDGE_LOOP('',(#169,#170,#171,#172));
#451=EDGE_LOOP('',(#173,#174,#175,#176));
#452=EDGE_LOOP('',(#177,#178,#179,#180));
#453=EDGE_LOOP('',(#181,#182,#183,#184));
#454=EDGE_LOOP('',(#185,#186,#187,#188));
#455=EDGE_LOOP('',(#189,#190,#191,#192));
#456=EDGE_LOOP('',(#193));
#457=EDGE_LOOP('',(#194));
#458=EDGE_LOOP('',(#195));
#459=EDGE_LOOP('',(#196));
#460=EDGE_LOOP('',(#197));
#461=EDGE_LOOP('',(#198));
#462=EDGE_LOOP('',(#199,#200,#201,#202));
#463=EDGE_LOOP('',(#203));
#464=EDGE_LOOP('',(#204));
#465=EDGE_LOOP('',(#205));
#466=EDGE_LOOP('',(#206,#207,#208));
#467=EDGE_LOOP('',(#209));
#468=EDGE_LOOP('',(#210));
#469=EDGE_LOOP('',(#211,#212,#213,#214,#215));
#470=EDGE_LOOP('',(#216));
#471=EDGE_LOOP('',(#217));
#472=FACE_BOUND('',#417,.T.);
#473=FACE_BOUND('',#418,.T.);
#474=FACE_BOUND('',#419,.T.);
#475=FACE_BOUND('',#420,.T.);
#476=FACE_BOUND('',#421,.T.);
#477=FACE_BOUND('',#422,.T.);
#478=FACE_BOUND('',#423,.T.);
#479=FACE_BOUND('',#424,.T.);
#480=FACE_BOUND('',#425,.T.);
#481=FACE_BOUND('',#426,.T.);
#482=FACE_BOUND('',#427,.T.);
#483=FACE_BOUND('',#428,.T.);
#484=FACE_BOUND('',#429,.T.);
#485=FACE_BOUND('',#430,.T.);
#486=FACE_BOUND('',#431,.T.);
#487=FACE_BOUND('',#432,.T.);
#488=FACE_BOUND('',#433,.T.);
#489=FACE_BOUND('',#434,.T.);
#490=FACE_BOUND('',#435,.T.);
#491=FACE_BOUND('',#436,.T.);
#492=FACE_BOUND('',#437,.T.);
#493=FACE_BOUND('',#438,.T.);
#494=FACE_BOUND('',#439,.T.);
#495=FACE_BOUND('',#440,.T.);
#496=FACE_BOUND('',#441,.T.);
#497=FACE_BOUND('',#442,.T.);
#498=FACE_BOUND('',#443,.T.);
#499=FACE_BOUND('',#444,.T.);
#500=FACE_BOUND('',#445,.T.);
#501=FACE_BOUND('',#446,.T.);
#502=FACE_BOUND('',#447,.T.);
#503=FACE_BOUND('',#448,.T.);
#504=FACE_BOUND('',#449,.T.);
#505=FACE_BOUND('',#450,.T.);
#506=FACE_BOUND('',#451,.T.);
#507=FACE_BOUND('',#452,.T.);
#508=FACE_BOUND('',#453,.T.);
#509=FACE_BOUND('',#454,.T.);
#510=FACE_BOUND('',#455,.T.);
#511=FACE_BOUND('',#456,.T.);
#512=FACE_BOUND('',#457,.T.);
#513=FACE_BOUND('',#458,.T.);
#514=FACE_BOUND('',#459,.T.);
#515=FACE_BOUND('',#460,.T.);
#516=FACE_BOUND('',#461,.T.);
#517=FACE_BOUND('',#462,.T.);
#518=FACE_BOUND('',#463,.T.);
#519=FACE_BOUND('',#464,.T.);
#520=FACE_BOUND('',#465,.T.);
#521=FACE_BOUND('',#466,.T.);
#522=FACE_BOUND('',#467,.T.);
#523=FACE_BOUND('',#468,.T.);
#524=FACE_BOUND('',#469,.T.);
#525=FACE_BOUND('',#470,.T.);
#526=FACE_BOUND('',#471,.T.);
#527=PLANE('',#583);
#528=PLANE('',#584);
#529=PLANE('',#585);
#530=PLANE('',#586);
#531=PLANE('',#587);
#532=PLANE('',#588);
#533=PLANE('',#589);
#534=PLANE('',#599);
#535=PLANE('',#603);
#536=PLANE('',#614);
#537=PLANE('',#640);
#538=PLANE('',#646);
#539=ADVANCED_FACE('',(#472),#527,.F.);
#540=ADVANCED_FACE('',(#473),#528,.T.);
#541=ADVANCED_FACE('',(#474),#529,.T.);
#542=ADVANCED_FACE('',(#475),#530,.F.);
#543=ADVANCED_FACE('',(#476),#531,.T.);
#544=ADVANCED_FACE('',(#477),#532,.F.);
#545=ADVANCED_FACE('',(#478),#533,.F.);
#546=ADVANCED_FACE('',(#479,#480),#50,.F.);
#547=ADVANCED_FACE('',(#481,#482),#51,.F.);
#548=ADVANCED_FACE('',(#483,#484),#52,.F.);
#549=ADVANCED_FACE('',(#485),#534,.T.);
#550=ADVANCED_FACE('',(#486,#487),#53,.F.);
#551=ADVANCED_FACE('',(#488,#489,#490,#491,#492,#493,#494),#535,.T.);
#552=ADVANCED_FACE('',(#495,#496,#497,#498,#499,#500,#501,#502),#536,.F.);
#553=ADVANCED_FACE('',(#503),#54,.T.);
#554=ADVANCED_FACE('',(#504),#55,.F.);
#555=ADVANCED_FACE('',(#505),#56,.F.);
#556=ADVANCED_FACE('',(#506),#57,.T.);
#557=ADVANCED_FACE('',(#507),#58,.T.);
#558=ADVANCED_FACE('',(#508),#59,.T.);
#559=ADVANCED_FACE('',(#509),#60,.T.);
#560=ADVANCED_FACE('',(#510),#61,.T.);
#561=ADVANCED_FACE('',(#511,#512),#62,.F.);
#562=ADVANCED_FACE('',(#513,#514),#63,.T.);
#563=ADVANCED_FACE('',(#515,#516),#537,.T.);
#564=ADVANCED_FACE('',(#517),#64,.T.);
#565=ADVANCED_FACE('',(#518,#519),#65,.F.);
#566=ADVANCED_FACE('',(#520,#521),#538,.T.);
#567=ADVANCED_FACE('',(#522,#523),#12,.F.);
#568=ADVANCED_FACE('',(#524),#13,.F.);
#569=ADVANCED_FACE('',(#525,#526),#66,.F.);
#570=CLOSED_SHELL('',(#539,#540,#541,#542,#543,#544,#545,#546,#547,#548,
#549,#550,#551,#552,#553,#554,#555,#556,#557,#558,#559,#560,#561,#562,#563,
#564,#565,#566,#567,#568,#569));
#571=STYLED_ITEM('',(#572),#579);
#572=PRESENTATION_STYLE_ASSIGNMENT((#573));
#573=SURFACE_STYLE_USAGE(.BOTH.,#574);
#574=SURFACE_SIDE_STYLE('',(#575));
#575=SURFACE_STYLE_FILL_AREA(#576);
#576=FILL_AREA_STYLE('',(#577));
#577=FILL_AREA_STYLE_COLOUR('',#578);
#578=COLOUR_RGB('',0.980392156862745,0.713725490196078,0.00392156862745098);
#579=MANIFOLD_SOLID_BREP('Part 2',#570);
#580=SHAPE_DEFINITION_REPRESENTATION(#998,#581);
#581=SHAPE_REPRESENTATION('Part 2',(#582),#993);
#582=AXIS2_PLACEMENT_3D('',#821,#650,#651);
#583=AXIS2_PLACEMENT_3D('',#822,#652,#653);
#584=AXIS2_PLACEMENT_3D('',#841,#660,#661);
#585=AXIS2_PLACEMENT_3D('',#850,#666,#667);
#586=AXIS2_PLACEMENT_3D('',#859,#672,#673);
#587=AXIS2_PLACEMENT_3D('',#868,#678,#679);
#588=AXIS2_PLACEMENT_3D('',#877,#684,#685);
#589=AXIS2_PLACEMENT_3D('',#886,#690,#691);
#590=AXIS2_PLACEMENT_3D('',#895,#696,#697);
#591=AXIS2_PLACEMENT_3D('',#896,#698,#699);
#592=AXIS2_PLACEMENT_3D('',#898,#700,#701);
#593=AXIS2_PLACEMENT_3D('',#900,#702,#703);
#594=AXIS2_PLACEMENT_3D('',#901,#704,#705);
#595=AXIS2_PLACEMENT_3D('',#903,#706,#707);
#596=AXIS2_PLACEMENT_3D('',#905,#708,#709);
#597=AXIS2_PLACEMENT_3D('',#906,#710,#711);
#598=AXIS2_PLACEMENT_3D('',#908,#712,#713);
#599=AXIS2_PLACEMENT_3D('',#910,#714,#715);
#600=AXIS2_PLACEMENT_3D('',#924,#720,#721);
#601=AXIS2_PLACEMENT_3D('',#925,#722,#723);
#602=AXIS2_PLACEMENT_3D('',#927,#724,#725);
#603=AXIS2_PLACEMENT_3D('',#929,#726,#727);
#604=AXIS2_PLACEMENT_3D('',#930,#728,#729);
#605=AXIS2_PLACEMENT_3D('',#932,#730,#731);
#606=AXIS2_PLACEMENT_3D('',#934,#732,#733);
#607=AXIS2_PLACEMENT_3D('',#935,#734,#735);
#608=AXIS2_PLACEMENT_3D('',#936,#736,#737);
#609=AXIS2_PLACEMENT_3D('',#937,#738,#739);
#610=AXIS2_PLACEMENT_3D('',#938,#740,#741);
#611=AXIS2_PLACEMENT_3D('',#939,#742,#743);
#612=AXIS2_PLACEMENT_3D('',#940,#744,#745);
#613=AXIS2_PLACEMENT_3D('',#941,#746,#747);
#614=AXIS2_PLACEMENT_3D('',#942,#748,#749);
#615=AXIS2_PLACEMENT_3D('',#943,#750,#751);
#616=AXIS2_PLACEMENT_3D('',#945,#752,#753);
#617=AXIS2_PLACEMENT_3D('',#947,#754,#755);
#618=AXIS2_PLACEMENT_3D('',#949,#756,#757);
#619=AXIS2_PLACEMENT_3D('',#950,#758,#759);
#620=AXIS2_PLACEMENT_3D('',#951,#760,#761);
#621=AXIS2_PLACEMENT_3D('',#952,#762,#763);
#622=AXIS2_PLACEMENT_3D('',#953,#764,#765);
#623=AXIS2_PLACEMENT_3D('',#954,#766,#767);
#624=AXIS2_PLACEMENT_3D('',#955,#768,#769);
#625=AXIS2_PLACEMENT_3D('',#956,#770,#771);
#626=AXIS2_PLACEMENT_3D('',#957,#772,#773);
#627=AXIS2_PLACEMENT_3D('',#958,#774,#775);
#628=AXIS2_PLACEMENT_3D('',#966,#777,#778);
#629=AXIS2_PLACEMENT_3D('',#967,#779,#780);
#630=AXIS2_PLACEMENT_3D('',#968,#781,#782);
#631=AXIS2_PLACEMENT_3D('',#969,#783,#784);
#632=AXIS2_PLACEMENT_3D('',#970,#785,#786);
#633=AXIS2_PLACEMENT_3D('',#971,#787,#788);
#634=AXIS2_PLACEMENT_3D('',#972,#789,#790);
#635=AXIS2_PLACEMENT_3D('',#973,#791,#792);
#636=AXIS2_PLACEMENT_3D('',#974,#793,#794);
#637=AXIS2_PLACEMENT_3D('',#976,#795,#796);
#638=AXIS2_PLACEMENT_3D('',#977,#797,#798);
#639=AXIS2_PLACEMENT_3D('',#979,#799,#800);
#640=AXIS2_PLACEMENT_3D('',#981,#801,#802);
#641=AXIS2_PLACEMENT_3D('',#982,#803,#804);
#642=AXIS2_PLACEMENT_3D('',#983,#805,#806);
#643=AXIS2_PLACEMENT_3D('',#984,#807,#808);
#644=AXIS2_PLACEMENT_3D('',#985,#809,#810);
#645=AXIS2_PLACEMENT_3D('',#986,#811,#812);
#646=AXIS2_PLACEMENT_3D('',#988,#813,#814);
#647=AXIS2_PLACEMENT_3D('',#989,#815,#816);
#648=AXIS2_PLACEMENT_3D('',#990,#817,#818);
#649=AXIS2_PLACEMENT_3D('',#991,#819,#820);
#650=DIRECTION('',(0.,0.,1.));
#651=DIRECTION('',(1.,0.,0.));
#652=DIRECTION('',(1.,0.,0.));
#653=DIRECTION('',(0.,0.,-1.));
#654=DIRECTION('',(0.,1.,0.));
#655=DIRECTION('',(0.,0.,1.));
#656=DIRECTION('',(0.,1.,0.));
#657=DIRECTION('',(0.,0.,1.));
#658=DIRECTION('',(0.,1.,0.));
#659=DIRECTION('',(0.,0.,1.));
#660=DIRECTION('',(0.,1.,0.));
#661=DIRECTION('',(0.,0.,1.));
#662=DIRECTION('',(-1.,0.,0.));
#663=DIRECTION('',(0.,0.,1.));
#664=DIRECTION('',(-1.,0.,0.));
#665=DIRECTION('',(0.,0.,1.));
#666=DIRECTION('',(1.,0.,0.));
#667=DIRECTION('',(0.,0.,-1.));
#668=DIRECTION('',(0.,1.,0.));
#669=DIRECTION('',(0.,0.,1.));
#670=DIRECTION('',(0.,1.,0.));
#671=DIRECTION('',(0.,0.,1.));
#672=DIRECTION('',(0.,1.,0.));
#673=DIRECTION('',(0.,0.,1.));
#674=DIRECTION('',(-1.,0.,0.));
#675=DIRECTION('',(0.,0.,1.));
#676=DIRECTION('',(-1.,0.,0.));
#677=DIRECTION('',(0.,0.,1.));
#678=DIRECTION('',(-1.,0.,0.));
#679=DIRECTION('',(0.,0.,1.));
#680=DIRECTION('',(0.,-1.,0.));
#681=DIRECTION('',(0.,0.,1.));
#682=DIRECTION('',(0.,-1.,0.));
#683=DIRECTION('',(0.,0.,1.));
#684=DIRECTION('',(0.,-1.,0.));
#685=DIRECTION('',(0.,0.,-1.));
#686=DIRECTION('',(1.,0.,0.));
#687=DIRECTION('',(0.,0.,1.));
#688=DIRECTION('',(1.,0.,0.));
#689=DIRECTION('',(0.,0.,1.));
#690=DIRECTION('',(-1.,0.,0.));
#691=DIRECTION('',(0.,0.,1.));
#692=DIRECTION('',(0.,-1.,0.));
#693=DIRECTION('',(0.,0.,1.));
#694=DIRECTION('',(0.,-1.,0.));
#695=DIRECTION('',(0.,0.,1.));
#696=DIRECTION('',(0.,0.,1.));
#697=DIRECTION('',(1.,0.,0.));
#698=DIRECTION('',(0.,0.,-1.));
#699=DIRECTION('',(-1.,0.,0.));
#700=DIRECTION('',(0.,0.,-1.));
#701=DIRECTION('',(-1.,0.,0.));
#702=DIRECTION('',(0.,0.,1.));
#703=DIRECTION('',(1.,0.,0.));
#704=DIRECTION('',(0.,0.,-1.));
#705=DIRECTION('',(-1.,0.,0.));
#706=DIRECTION('',(0.,0.,-1.));
#707=DIRECTION('',(-1.,0.,0.));
#708=DIRECTION('',(0.,0.,1.));
#709=DIRECTION('',(1.,0.,0.));
#710=DIRECTION('',(0.,0.,-1.));
#711=DIRECTION('',(-1.,0.,0.));
#712=DIRECTION('',(0.,0.,-1.));
#713=DIRECTION('',(-1.,0.,0.));
#714=DIRECTION('',(0.,1.,0.));
#715=DIRECTION('',(0.,0.,1.));
#716=DIRECTION('',(-1.,0.,0.));
#717=DIRECTION('',(0.,0.,1.));
#718=DIRECTION('',(-1.,0.,0.));
#719=DIRECTION('',(0.,0.,1.));
#720=DIRECTION('',(0.,0.,1.));
#721=DIRECTION('',(1.,0.,0.));
#722=DIRECTION('',(0.,0.,-1.));
#723=DIRECTION('',(-1.,0.,0.));
#724=DIRECTION('',(0.,0.,-1.));
#725=DIRECTION('',(-1.,0.,0.));
#726=DIRECTION('',(0.,0.,-1.));
#727=DIRECTION('',(1.,0.,0.));
#728=DIRECTION('',(0.,0.,-1.));
#729=DIRECTION('',(-1.,0.,0.));
#730=DIRECTION('',(0.,0.,-1.));
#731=DIRECTION('',(-1.,0.,0.));
#732=DIRECTION('',(0.,0.,-1.));
#733=DIRECTION('',(-1.,0.,0.));
#734=DIRECTION('',(0.,0.,-1.));
#735=DIRECTION('',(-1.,0.,0.));
#736=DIRECTION('',(0.,0.,-1.));
#737=DIRECTION('',(-1.,0.,0.));
#738=DIRECTION('',(0.,0.,-1.));
#739=DIRECTION('',(-1.,0.,0.));
#740=DIRECTION('',(0.,0.,-1.));
#741=DIRECTION('',(-1.,0.,0.));
#742=DIRECTION('',(0.,0.,-1.));
#743=DIRECTION('',(-1.,0.,0.));
#744=DIRECTION('',(0.,0.,-1.));
#745=DIRECTION('',(-1.,0.,0.));
#746=DIRECTION('',(0.,0.,-1.));
#747=DIRECTION('',(-1.,0.,0.));
#748=DIRECTION('',(0.,0.,-1.));
#749=DIRECTION('',(1.,0.,0.));
#750=DIRECTION('',(0.,0.,-1.));
#751=DIRECTION('',(-1.,0.,0.));
#752=DIRECTION('',(0.,0.,-1.));
#753=DIRECTION('',(-1.,0.,0.));
#754=DIRECTION('',(0.,0.,-1.));
#755=DIRECTION('',(-1.,0.,0.));
#756=DIRECTION('',(0.,0.,-1.));
#757=DIRECTION('',(-1.,0.,0.));
#758=DIRECTION('',(0.,0.,-1.));
#759=DIRECTION('',(-1.,0.,0.));
#760=DIRECTION('',(0.,0.,-1.));
#761=DIRECTION('',(-1.,0.,0.));
#762=DIRECTION('',(0.,0.,-1.));
#763=DIRECTION('',(-1.,0.,0.));
#764=DIRECTION('',(0.,0.,-1.));
#765=DIRECTION('',(-1.,0.,0.));
#766=DIRECTION('',(0.,0.,-1.));
#767=DIRECTION('',(-1.,0.,0.));
#768=DIRECTION('',(0.,0.,-1.));
#769=DIRECTION('',(-1.,0.,0.));
#770=DIRECTION('',(0.,0.,-1.));
#771=DIRECTION('',(-1.,0.,0.));
#772=DIRECTION('',(0.,0.,-1.));
#773=DIRECTION('',(-1.,0.,0.));
#774=DIRECTION('',(0.,0.,1.));
#775=DIRECTION('',(1.,0.,0.));
#776=DIRECTION('',(0.,0.,1.));
#777=DIRECTION('',(0.,0.,-1.));
#778=DIRECTION('',(-1.,0.,0.));
#779=DIRECTION('',(0.,0.,1.));
#780=DIRECTION('',(1.,0.,0.));
#781=DIRECTION('',(0.,0.,1.));
#782=DIRECTION('',(1.,0.,0.));
#783=DIRECTION('',(0.,0.,-1.));
#784=DIRECTION('',(-1.,0.,0.));
#785=DIRECTION('',(0.,0.,1.));
#786=DIRECTION('',(1.,0.,0.));
#787=DIRECTION('',(0.,0.,-1.));
#788=DIRECTION('',(-1.,0.,0.));
#789=DIRECTION('',(0.,0.,-1.));
#790=DIRECTION('',(-1.,0.,0.));
#791=DIRECTION('',(0.,0.,1.));
#792=DIRECTION('',(1.,0.,0.));
#793=DIRECTION('',(0.,0.,-1.));
#794=DIRECTION('',(-1.,0.,0.));
#795=DIRECTION('',(0.,0.,1.));
#796=DIRECTION('',(1.,0.,0.));
#797=DIRECTION('',(0.,0.,-1.));
#798=DIRECTION('',(-1.,0.,0.));
#799=DIRECTION('',(0.,0.,-1.));
#800=DIRECTION('',(-1.,0.,0.));
#801=DIRECTION('',(0.,0.,-1.));
#802=DIRECTION('',(1.,0.,0.));
#803=DIRECTION('',(0.,0.,1.));
#804=DIRECTION('',(1.,0.,0.));
#805=DIRECTION('',(0.,0.,-1.));
#806=DIRECTION('',(-1.,0.,0.));
#807=DIRECTION('',(0.,0.,-1.));
#808=DIRECTION('',(-1.,0.,0.));
#809=DIRECTION('',(0.,0.,1.));
#810=DIRECTION('',(1.,0.,0.));
#811=DIRECTION('',(0.,0.,-1.));
#812=DIRECTION('',(-1.,0.,0.));
#813=DIRECTION('',(0.,0.,-1.));
#814=DIRECTION('',(1.,0.,0.));
#815=DIRECTION('',(0.,0.,-1.));
#816=DIRECTION('',(-1.,0.,0.));
#817=DIRECTION('',(0.,0.,-1.));
#818=DIRECTION('',(-1.,0.,0.));
#819=DIRECTION('',(0.,0.,-1.));
#820=DIRECTION('',(-1.,0.,0.));
#821=CARTESIAN_POINT('',(0.,0.,0.));
#822=CARTESIAN_POINT('',(0.0375,-0.014299666482679,-0.01685));
#823=CARTESIAN_POINT('',(0.0375,-0.014299666482679,-0.0155));
#824=CARTESIAN_POINT('',(0.0375,-0.0183996664826791,-0.0155));
#825=CARTESIAN_POINT('',(0.0375,-0.00829966648267902,-0.0155));
#826=CARTESIAN_POINT('',(0.0375,-0.00829966648267902,-0.01685));
#827=CARTESIAN_POINT('',(0.0375,-0.00829966648267902,-0.01685));
#828=CARTESIAN_POINT('',(0.0375,-0.014299666482679,-0.01685));
#829=CARTESIAN_POINT('',(0.0375,-0.0168867943828351,-0.01685));
#830=CARTESIAN_POINT('',(0.0375,-0.0168867943828351,-0.01685));
#831=CARTESIAN_POINT('',(0.0375,-0.0171840593082637,-0.01685));
#832=CARTESIAN_POINT('',(0.0375,-0.017764170826256,-0.0170232252524728));
#833=CARTESIAN_POINT('',(0.0375,-0.0181458198043985,-0.0175509883473795));
#834=CARTESIAN_POINT('',(0.0375,-0.0181458198043985,-0.01785));
#835=CARTESIAN_POINT('',(0.0375,-0.0181458198043985,-0.01785));
#836=CARTESIAN_POINT('',(0.0375,-0.0181458198043985,-0.01966));
#837=CARTESIAN_POINT('',(0.0375,-0.0181458198043985,-0.01966));
#838=CARTESIAN_POINT('',(0.0375,-0.014299666482679,-0.01966));
#839=CARTESIAN_POINT('',(0.0375,-0.0183996664826791,-0.01966));
#840=CARTESIAN_POINT('',(0.0375,-0.0183996664826791,-0.01685));
#841=CARTESIAN_POINT('',(0.0452,-0.00639966648267902,-0.01685));
#842=CARTESIAN_POINT('',(0.0452,-0.00639966648267902,-0.01685));
#843=CARTESIAN_POINT('',(0.051,-0.00639966648267902,-0.01685));
#844=CARTESIAN_POINT('',(0.0394,-0.00639966648267902,-0.01685));
#845=CARTESIAN_POINT('',(0.0394,-0.00639966648267902,-0.0155));
#846=CARTESIAN_POINT('',(0.0394,-0.00639966648267902,-0.0155));
#847=CARTESIAN_POINT('',(0.0452,-0.00639966648267902,-0.0155));
#848=CARTESIAN_POINT('',(0.051,-0.00639966648267902,-0.0155));
#849=CARTESIAN_POINT('',(0.051,-0.00639966648267902,-0.01685));
#850=CARTESIAN_POINT('',(0.0529,-0.0339998332413395,-0.01685));
#851=CARTESIAN_POINT('',(0.0529,-0.0339998332413395,-0.01685));
#852=CARTESIAN_POINT('',(0.0529,-0.0578,-0.01685));
#853=CARTESIAN_POINT('',(0.0529,-0.00829966648267902,-0.01685));
#854=CARTESIAN_POINT('',(0.0529,-0.00829966648267902,-0.01685));
#855=CARTESIAN_POINT('',(0.0529,-0.00829966648267902,-0.0155));
#856=CARTESIAN_POINT('',(0.0529,-0.0339998332413395,-0.0155));
#857=CARTESIAN_POINT('',(0.0529,-0.0578,-0.0155));
#858=CARTESIAN_POINT('',(0.0529,-0.0578,-0.01685));
#859=CARTESIAN_POINT('',(0.0452,-0.0597,-0.01685));
#860=CARTESIAN_POINT('',(0.0452,-0.0597,-0.0155));
#861=CARTESIAN_POINT('',(0.051,-0.0597,-0.0155));
#862=CARTESIAN_POINT('',(0.0045,-0.0597,-0.0155));
#863=CARTESIAN_POINT('',(0.0045,-0.0597,-0.01685));
#864=CARTESIAN_POINT('',(0.0045,-0.0597,-0.01685));
#865=CARTESIAN_POINT('',(0.0452,-0.0597,-0.01685));
#866=CARTESIAN_POINT('',(0.051,-0.0597,-0.01685));
#867=CARTESIAN_POINT('',(0.051,-0.0597,-0.0155));
#868=CARTESIAN_POINT('',(0.0026,-0.0329,-0.01685));
#869=CARTESIAN_POINT('',(0.0026,-0.0329,-0.0155));
#870=CARTESIAN_POINT('',(0.0026,-0.008,-0.0155));
#871=CARTESIAN_POINT('',(0.0026,-0.0578,-0.0155));
#872=CARTESIAN_POINT('',(0.0026,-0.008,-0.01685));
#873=CARTESIAN_POINT('',(0.0026,-0.008,-0.01685));
#874=CARTESIAN_POINT('',(0.0026,-0.0329,-0.01685));
#875=CARTESIAN_POINT('',(0.0026,-0.0578,-0.01685));
#876=CARTESIAN_POINT('',(0.0026,-0.0578,-0.0155));
#877=CARTESIAN_POINT('',(0.009775,-0.0061,-0.01685));
#878=CARTESIAN_POINT('',(0.009775,-0.0061,-0.0155));
#879=CARTESIAN_POINT('',(0.0045,-0.0061,-0.0155));
#880=CARTESIAN_POINT('',(0.01505,-0.0061,-0.0155));
#881=CARTESIAN_POINT('',(0.01505,-0.0061,-0.01685));
#882=CARTESIAN_POINT('',(0.01505,-0.0061,-0.01685));
#883=CARTESIAN_POINT('',(0.009775,-0.0061,-0.01685));
#884=CARTESIAN_POINT('',(0.0045,-0.0061,-0.01685));
#885=CARTESIAN_POINT('',(0.0045,-0.0061,-0.0155));
#886=CARTESIAN_POINT('',(0.01695,-0.0131998332413395,-0.01685));
#887=CARTESIAN_POINT('',(0.01695,-0.0131998332413395,-0.0155));
#888=CARTESIAN_POINT('',(0.01695,-0.008,-0.0155));
#889=CARTESIAN_POINT('',(0.01695,-0.0183996664826791,-0.0155));
#890=CARTESIAN_POINT('',(0.01695,-0.0183996664826791,-0.01685));
#891=CARTESIAN_POINT('',(0.01695,-0.0183996664826791,-0.01685));
#892=CARTESIAN_POINT('',(0.01695,-0.0131998332413395,-0.01685));
#893=CARTESIAN_POINT('',(0.01695,-0.008,-0.01685));
#894=CARTESIAN_POINT('',(0.01695,-0.008,-0.01685));
#895=CARTESIAN_POINT('',(0.0045,-0.0126,-0.01685));
#896=CARTESIAN_POINT('',(0.0045,-0.0126,-0.01685));
#897=CARTESIAN_POINT('',(0.003675,-0.0126,-0.01685));
#898=CARTESIAN_POINT('',(0.0045,-0.0126,-0.0155));
#899=CARTESIAN_POINT('',(0.003675,-0.0126,-0.0155));
#900=CARTESIAN_POINT('',(0.01695,-0.0578,-0.01685));
#901=CARTESIAN_POINT('',(0.01695,-0.0578,-0.01685));
#902=CARTESIAN_POINT('',(0.016075,-0.0578,-0.01685));
#903=CARTESIAN_POINT('',(0.01695,-0.0578,-0.0155));
#904=CARTESIAN_POINT('',(0.016075,-0.0578,-0.0155));
#905=CARTESIAN_POINT('',(0.051,-0.00829966648267902,-0.01685));
#906=CARTESIAN_POINT('',(0.051,-0.00829966648267902,-0.01685));
#907=CARTESIAN_POINT('',(0.050125,-0.00829966648267902,-0.01685));
#908=CARTESIAN_POINT('',(0.051,-0.00829966648267902,-0.0155));
#909=CARTESIAN_POINT('',(0.050125,-0.00829966648267902,-0.0155));
#910=CARTESIAN_POINT('',(0.027225,-0.020299666482679,-0.01685));
#911=CARTESIAN_POINT('',(0.027225,-0.020299666482679,-0.0155));
#912=CARTESIAN_POINT('',(0.0356,-0.020299666482679,-0.0155));
#913=CARTESIAN_POINT('',(0.01885,-0.020299666482679,-0.0155));
#914=CARTESIAN_POINT('',(0.0356,-0.020299666482679,-0.01685));
#915=CARTESIAN_POINT('',(0.0356,-0.020299666482679,-0.0168667041143167));
#916=CARTESIAN_POINT('',(0.0356,-0.020299666482679,-0.0168667041143167));
#917=CARTESIAN_POINT('',(0.0355395939792808,-0.020299666482679,-0.0168555691522419));
#918=CARTESIAN_POINT('',(0.0354786792053084,-0.020299666482679,-0.0168499999999997));
#919=CARTESIAN_POINT('',(0.0354172553725636,-0.020299666482679,-0.0168499999999997));
#920=CARTESIAN_POINT('',(0.0354172553725635,-0.020299666482679,-0.01685));
#921=CARTESIAN_POINT('',(0.027225,-0.020299666482679,-0.01685));
#922=CARTESIAN_POINT('',(0.01885,-0.020299666482679,-0.01685));
#923=CARTESIAN_POINT('',(0.01885,-0.020299666482679,-0.01685));
#924=CARTESIAN_POINT('',(0.0045,-0.008,-0.01685));
#925=CARTESIAN_POINT('',(0.0045,-0.008,-0.01685));
#926=CARTESIAN_POINT('',(0.003625,-0.008,-0.01685));
#927=CARTESIAN_POINT('',(0.0045,-0.008,-0.0155));
#928=CARTESIAN_POINT('',(0.003625,-0.008,-0.0155));
#929=CARTESIAN_POINT('',(0.02775,-0.0329,-0.01685));
#930=CARTESIAN_POINT('',(0.024396683822485,-0.0361966838224849,-0.01685));
#931=CARTESIAN_POINT('',(0.0126798429600878,-0.0361966838224849,-0.01685));
#932=CARTESIAN_POINT('',(0.00889336764496989,-0.0517,-0.01685));
#933=CARTESIAN_POINT('',(0.00439336764496989,-0.0517,-0.01685));
#934=CARTESIAN_POINT('',(0.0399,-0.0206933676449699,-0.01685));
#935=CARTESIAN_POINT('',(0.0394,-0.00829966648267902,-0.01685));
#936=CARTESIAN_POINT('',(0.051,-0.00829966648267902,-0.01685));
#937=CARTESIAN_POINT('',(0.051,-0.0578,-0.01685));
#938=CARTESIAN_POINT('',(0.0045,-0.0578,-0.01685));
#939=CARTESIAN_POINT('',(0.0045,-0.008,-0.01685));
#940=CARTESIAN_POINT('',(0.01505,-0.008,-0.01685));
#941=CARTESIAN_POINT('',(0.01885,-0.0183996664826791,-0.01685));
#942=CARTESIAN_POINT('',(0.02775,-0.0329,-0.0155));
#943=CARTESIAN_POINT('',(0.024396683822485,-0.0361966838224849,-0.0155));
#944=CARTESIAN_POINT('',(0.0126798429600878,-0.0361966838224849,-0.0155));
#945=CARTESIAN_POINT('',(0.00889336764496989,-0.0517,-0.0155));
#946=CARTESIAN_POINT('',(0.00653086764496989,-0.0517,-0.0155));
#947=CARTESIAN_POINT('',(0.0399,-0.0206933676449699,-0.0155));
#948=CARTESIAN_POINT('',(0.0375375,-0.0206933676449699,-0.0155));
#949=CARTESIAN_POINT('',(0.0394,-0.00829966648267902,-0.0155));
#950=CARTESIAN_POINT('',(0.0356,-0.0183996664826791,-0.0155));
#951=CARTESIAN_POINT('',(0.01885,-0.0183996664826791,-0.0155));
#952=CARTESIAN_POINT('',(0.01505,-0.008,-0.0155));
#953=CARTESIAN_POINT('',(0.0045,-0.008,-0.0155));
#954=CARTESIAN_POINT('',(0.0045,-0.0578,-0.0155));
#955=CARTESIAN_POINT('',(0.051,-0.0578,-0.0155));
#956=CARTESIAN_POINT('',(0.051,-0.00829966648267902,-0.0155));
#957=CARTESIAN_POINT('',(0.0394,-0.00829966648267902,-0.01685));
#958=CARTESIAN_POINT('',(0.0356,-0.0183996664826791,-0.01685));
#959=CARTESIAN_POINT('',(0.0364509287964675,-0.0200984661128127,-0.01966));
#960=CARTESIAN_POINT('',(0.0364509287964675,-0.0200984661128127,-0.01966));
#961=CARTESIAN_POINT('',(0.0364509287964675,-0.0200984661128127,-0.01785));
#962=CARTESIAN_POINT('',(0.0364509287964675,-0.0200984661128127,-0.01785));
#963=CARTESIAN_POINT('',(0.0364509287964675,-0.0200984661128127,-0.017369949403885));
#964=CARTESIAN_POINT('',(0.0360716947903061,-0.0202996664826791,-0.0169536541159626));
#965=CARTESIAN_POINT('',(0.0356,-0.0202996664826791,-0.0168667041143167));
#966=CARTESIAN_POINT('',(0.0356,-0.0183996664826791,-0.01966));
#967=CARTESIAN_POINT('',(0.01885,-0.0183996664826791,-0.01685));
#968=CARTESIAN_POINT('',(0.01505,-0.008,-0.01685));
#969=CARTESIAN_POINT('',(0.0045,-0.008,-0.01685));
#970=CARTESIAN_POINT('',(0.051,-0.00829966648267902,-0.01685));
#971=CARTESIAN_POINT('',(0.0045,-0.0578,-0.01685));
#972=CARTESIAN_POINT('',(0.051,-0.0578,-0.01685));
#973=CARTESIAN_POINT('',(0.00889336764496989,-0.0517,-0.01966));
#974=CARTESIAN_POINT('',(0.00889336764496989,-0.0517,-0.01966));
#975=CARTESIAN_POINT('',(0.00653086764496989,-0.0517,-0.01966));
#976=CARTESIAN_POINT('',(0.00889336764496989,-0.0517,-0.01966));
#977=CARTESIAN_POINT('',(0.00889336764496989,-0.0517,-0.01785));
#978=CARTESIAN_POINT('',(0.00539336764496989,-0.0517,-0.01785));
#979=CARTESIAN_POINT('',(0.00889336764496989,-0.0517,-0.01966));
#980=CARTESIAN_POINT('',(0.00539336764496989,-0.0517,-0.01966));
#981=CARTESIAN_POINT('',(0.02775,-0.0329,-0.01966));
#982=CARTESIAN_POINT('',(0.0399,-0.0206933676449699,-0.01966));
#983=CARTESIAN_POINT('',(0.0399,-0.0206933676449699,-0.01785));
#984=CARTESIAN_POINT('',(0.0399,-0.0206933676449699,-0.01966));
#985=CARTESIAN_POINT('',(0.0399,-0.0206933676449699,-0.01966));
#986=CARTESIAN_POINT('',(0.0399,-0.0206933676449699,-0.01966));
#987=CARTESIAN_POINT('',(0.0375375,-0.0206933676449699,-0.01966));
#988=CARTESIAN_POINT('',(0.02775,-0.0329,-0.01966));
#989=CARTESIAN_POINT('',(0.00889336764496989,-0.0517,-0.01785));
#990=CARTESIAN_POINT('',(0.0399,-0.0206933676449699,-0.01785));
#991=CARTESIAN_POINT('',(0.024396683822485,-0.0361966838224849,-0.015498));
#992=MECHANICAL_DESIGN_GEOMETRIC_PRESENTATION_REPRESENTATION('',(#571),
#993);
#993=(
GEOMETRIC_REPRESENTATION_CONTEXT(3)
GLOBAL_UNCERTAINTY_ASSIGNED_CONTEXT((#994))
GLOBAL_UNIT_ASSIGNED_CONTEXT((#997,#996,#995))
REPRESENTATION_CONTEXT('Part 2','TOP_LEVEL_ASSEMBLY_PART')
);
#994=UNCERTAINTY_MEASURE_WITH_UNIT(LENGTH_MEASURE(2.E-5),#997,
'DISTANCE_ACCURACY_VALUE','Maximum Tolerance applied to model');
#995=(
NAMED_UNIT(*)
SI_UNIT($,.STERADIAN.)
SOLID_ANGLE_UNIT()
);
#996=(
NAMED_UNIT(*)
PLANE_ANGLE_UNIT()
SI_UNIT($,.RADIAN.)
);
#997=(
LENGTH_UNIT()
NAMED_UNIT(*)
SI_UNIT($,.METRE.)
);
#998=PRODUCT_DEFINITION_SHAPE('','',#999);
#999=PRODUCT_DEFINITION('','',#1001,#1000);
#1000=PRODUCT_DEFINITION_CONTEXT('',#1007,'design');
#1001=PRODUCT_DEFINITION_FORMATION_WITH_SPECIFIED_SOURCE('','',#1003,
 .NOT_KNOWN.);
#1002=PRODUCT_RELATED_PRODUCT_CATEGORY('','',(#1003));
#1003=PRODUCT('Part 2','Part 2','Part 2',(#1005));
#1004=PRODUCT_CATEGORY('','');
#1005=PRODUCT_CONTEXT('',#1007,'mechanical');
#1006=APPLICATION_PROTOCOL_DEFINITION('international standard',
'ap242_managed_model_based_3d_engineering',2020,#1007);
#1007=APPLICATION_CONTEXT('managed model based 3d engineering');
ENDSEC;
END-ISO-10303-21;
