ISO-10303-21;
HEADER;
/* Generated by software containing ST-Developer
 * from STEP Tools, Inc. (www.steptools.com) 
 */
/* OPTION: using custom renumber hook */

FILE_DESCRIPTION(
/* description */ ('STEP AP242 Edition 2',
'CAx-IF Rec.Pracs.---Representation and Presentation of Product Manufa
cturing Information (PMI)---4.0---2014-10-13',
'CAx-IF Rec.Pracs.---3D Tessellated Geometry---0.4---2014-09-14','2;1',
'CAx-IF Rec.Pracs.---User Defined Attributes---1.5---2016-08-15'),
/* implementation_level */ '2;1');

FILE_NAME(
/* name */ 'Toolhead+Front - Part 2',
/* time_stamp */ '2026-08-06T04:49:26Z',
/* author */ (''),
/* organization */ (''),
/* preprocessor_version */ 'ST-DEVELOPER v20',
/* originating_system */ 'ONSHAPE BY PTC INC, 1.218',
/* authorisation */ '  ');

FILE_SCHEMA (('AP242_MANAGED_MODEL_BASED_3D_ENGINEERING_MIM_LF { 1 0 10303 442 3 1 4 }'));
ENDSEC;

DATA;
#10=SHAPE_REPRESENTATION_RELATIONSHIP('','',#557,#11);
#11=ADVANCED_BREP_SHAPE_REPRESENTATION('',(#555),#947);
#12=TOROIDAL_SURFACE('',#623,0.005,0.0015);
#13=TOROIDAL_SURFACE('',#624,0.005,0.0015);
#14=CIRCLE('',#567,0.000825);
#15=CIRCLE('',#568,0.000825);
#16=CIRCLE('',#570,0.000875);
#17=CIRCLE('',#571,0.000875);
#18=CIRCLE('',#573,0.000875);
#19=CIRCLE('',#574,0.000875);
#20=CIRCLE('',#577,0.000875);
#21=CIRCLE('',#578,0.000875);
#22=CIRCLE('',#580,0.0117168408623972);
#23=CIRCLE('',#581,0.005);
#24=CIRCLE('',#582,0.005);
#25=CIRCLE('',#583,0.0019);
#26=CIRCLE('',#584,0.0019);
#27=CIRCLE('',#585,0.0019);
#28=CIRCLE('',#586,0.0019);
#29=CIRCLE('',#587,0.0019);
#30=CIRCLE('',#588,0.0019);
#31=CIRCLE('',#589,0.0019);
#32=CIRCLE('',#590,0.0019);
#33=CIRCLE('',#592,0.0117168408623972);
#34=CIRCLE('',#593,0.0023625);
#35=CIRCLE('',#594,0.0023625);
#36=CIRCLE('',#595,0.0019);
#37=CIRCLE('',#596,0.0019);
#38=CIRCLE('',#597,0.0019);
#39=CIRCLE('',#598,0.0019);
#40=CIRCLE('',#599,0.0019);
#41=CIRCLE('',#600,0.0019);
#42=CIRCLE('',#601,0.0019);
#43=CIRCLE('',#602,0.0019);
#44=CIRCLE('',#612,0.0023625);
#45=CIRCLE('',#614,0.0035);
#46=CIRCLE('',#615,0.0035);
#47=CIRCLE('',#618,0.0023625);
#48=CIRCLE('',#620,0.0035);
#49=CIRCLE('',#621,0.0035);
#50=CYLINDRICAL_SURFACE('',#566,0.000825);
#51=CYLINDRICAL_SURFACE('',#569,0.000875);
#52=CYLINDRICAL_SURFACE('',#572,0.000875);
#53=CYLINDRICAL_SURFACE('',#576,0.000875);
#54=CYLINDRICAL_SURFACE('',#603,0.0019);
#55=CYLINDRICAL_SURFACE('',#604,0.0019);
#56=CYLINDRICAL_SURFACE('',#605,0.0019);
#57=CYLINDRICAL_SURFACE('',#606,0.0019);
#58=CYLINDRICAL_SURFACE('',#607,0.0019);
#59=CYLINDRICAL_SURFACE('',#608,0.0019);
#60=CYLINDRICAL_SURFACE('',#609,0.0019);
#61=CYLINDRICAL_SURFACE('',#610,0.0019);
#62=CYLINDRICAL_SURFACE('',#611,0.0023625);
#63=CYLINDRICAL_SURFACE('',#613,0.0035);
#64=CYLINDRICAL_SURFACE('',#617,0.0023625);
#65=CYLINDRICAL_SURFACE('',#619,0.0035);
#66=CYLINDRICAL_SURFACE('',#625,0.0117168408623972);
#67=ORIENTED_EDGE('',*,*,#203,.T.);
#68=ORIENTED_EDGE('',*,*,#204,.T.);
#69=ORIENTED_EDGE('',*,*,#205,.F.);
#70=ORIENTED_EDGE('',*,*,#206,.T.);
#71=ORIENTED_EDGE('',*,*,#207,.T.);
#72=ORIENTED_EDGE('',*,*,#208,.T.);
#73=ORIENTED_EDGE('',*,*,#209,.F.);
#74=ORIENTED_EDGE('',*,*,#210,.T.);
#75=ORIENTED_EDGE('',*,*,#211,.T.);
#76=ORIENTED_EDGE('',*,*,#212,.T.);
#77=ORIENTED_EDGE('',*,*,#213,.F.);
#78=ORIENTED_EDGE('',*,*,#214,.T.);
#79=ORIENTED_EDGE('',*,*,#215,.T.);
#80=ORIENTED_EDGE('',*,*,#216,.T.);
#81=ORIENTED_EDGE('',*,*,#217,.F.);
#82=ORIENTED_EDGE('',*,*,#218,.T.);
#83=ORIENTED_EDGE('',*,*,#219,.F.);
#84=ORIENTED_EDGE('',*,*,#220,.T.);
#85=ORIENTED_EDGE('',*,*,#221,.T.);
#86=ORIENTED_EDGE('',*,*,#222,.T.);
#87=ORIENTED_EDGE('',*,*,#223,.T.);
#88=ORIENTED_EDGE('',*,*,#224,.T.);
#89=ORIENTED_EDGE('',*,*,#225,.F.);
#90=ORIENTED_EDGE('',*,*,#226,.T.);
#91=ORIENTED_EDGE('',*,*,#227,.T.);
#92=ORIENTED_EDGE('',*,*,#228,.T.);
#93=ORIENTED_EDGE('',*,*,#229,.F.);
#94=ORIENTED_EDGE('',*,*,#230,.T.);
#95=ORIENTED_EDGE('',*,*,#231,.T.);
#96=ORIENTED_EDGE('',*,*,#232,.F.);
#97=ORIENTED_EDGE('',*,*,#233,.T.);
#98=ORIENTED_EDGE('',*,*,#234,.F.);
#99=ORIENTED_EDGE('',*,*,#235,.T.);
#100=ORIENTED_EDGE('',*,*,#236,.F.);
#101=ORIENTED_EDGE('',*,*,#237,.F.);
#102=ORIENTED_EDGE('',*,*,#238,.T.);
#103=ORIENTED_EDGE('',*,*,#239,.T.);
#104=ORIENTED_EDGE('',*,*,#240,.T.);
#105=ORIENTED_EDGE('',*,*,#241,.F.);
#106=ORIENTED_EDGE('',*,*,#242,.T.);
#107=ORIENTED_EDGE('',*,*,#243,.F.);
#108=ORIENTED_EDGE('',*,*,#244,.T.);
#109=ORIENTED_EDGE('',*,*,#245,.T.);
#110=ORIENTED_EDGE('',*,*,#205,.T.);
#111=ORIENTED_EDGE('',*,*,#246,.T.);
#112=ORIENTED_EDGE('',*,*,#207,.F.);
#113=ORIENTED_EDGE('',*,*,#247,.T.);
#114=ORIENTED_EDGE('',*,*,#211,.F.);
#115=ORIENTED_EDGE('',*,*,#248,.T.);
#116=ORIENTED_EDGE('',*,*,#217,.T.);
#117=ORIENTED_EDGE('',*,*,#249,.T.);
#118=ORIENTED_EDGE('',*,*,#221,.F.);
#119=ORIENTED_EDGE('',*,*,#250,.T.);
#120=ORIENTED_EDGE('',*,*,#225,.T.);
#121=ORIENTED_EDGE('',*,*,#251,.T.);
#122=ORIENTED_EDGE('',*,*,#229,.T.);
#123=ORIENTED_EDGE('',*,*,#252,.T.);
#124=ORIENTED_EDGE('',*,*,#239,.F.);
#125=ORIENTED_EDGE('',*,*,#253,.T.);
#126=ORIENTED_EDGE('',*,*,#235,.F.);
#127=ORIENTED_EDGE('',*,*,#233,.F.);
#128=ORIENTED_EDGE('',*,*,#231,.F.);
#129=ORIENTED_EDGE('',*,*,#241,.T.);
#130=ORIENTED_EDGE('',*,*,#254,.T.);
#131=ORIENTED_EDGE('',*,*,#255,.T.);
#132=ORIENTED_EDGE('',*,*,#256,.T.);
#133=ORIENTED_EDGE('',*,*,#209,.T.);
#134=ORIENTED_EDGE('',*,*,#257,.T.);
#135=ORIENTED_EDGE('',*,*,#203,.F.);
#136=ORIENTED_EDGE('',*,*,#258,.T.);
#137=ORIENTED_EDGE('',*,*,#237,.T.);
#138=ORIENTED_EDGE('',*,*,#259,.T.);
#139=ORIENTED_EDGE('',*,*,#227,.F.);
#140=ORIENTED_EDGE('',*,*,#260,.T.);
#141=ORIENTED_EDGE('',*,*,#223,.F.);
#142=ORIENTED_EDGE('',*,*,#261,.T.);
#143=ORIENTED_EDGE('',*,*,#219,.T.);
#144=ORIENTED_EDGE('',*,*,#262,.T.);
#145=ORIENTED_EDGE('',*,*,#215,.F.);
#146=ORIENTED_EDGE('',*,*,#263,.T.);
#147=ORIENTED_EDGE('',*,*,#213,.T.);
#148=ORIENTED_EDGE('',*,*,#264,.T.);
#149=ORIENTED_EDGE('',*,*,#236,.T.);
#150=ORIENTED_EDGE('',*,*,#234,.T.);
#151=ORIENTED_EDGE('',*,*,#232,.T.);
#152=ORIENTED_EDGE('',*,*,#242,.F.);
#153=ORIENTED_EDGE('',*,*,#246,.F.);
#154=ORIENTED_EDGE('',*,*,#204,.F.);
#155=ORIENTED_EDGE('',*,*,#257,.F.);
#156=ORIENTED_EDGE('',*,*,#208,.F.);
#157=ORIENTED_EDGE('',*,*,#253,.F.);
#158=ORIENTED_EDGE('',*,*,#238,.F.);
#159=ORIENTED_EDGE('',*,*,#258,.F.);
#160=ORIENTED_EDGE('',*,*,#206,.F.);
#161=ORIENTED_EDGE('',*,*,#252,.F.);
#162=ORIENTED_EDGE('',*,*,#228,.F.);
#163=ORIENTED_EDGE('',*,*,#259,.F.);
#164=ORIENTED_EDGE('',*,*,#240,.F.);
#165=ORIENTED_EDGE('',*,*,#251,.F.);
#166=ORIENTED_EDGE('',*,*,#224,.F.);
#167=ORIENTED_EDGE('',*,*,#260,.F.);
#168=ORIENTED_EDGE('',*,*,#230,.F.);
#169=ORIENTED_EDGE('',*,*,#250,.F.);
#170=ORIENTED_EDGE('',*,*,#220,.F.);
#171=ORIENTED_EDGE('',*,*,#261,.F.);
#172=ORIENTED_EDGE('',*,*,#226,.F.);
#173=ORIENTED_EDGE('',*,*,#247,.F.);
#174=ORIENTED_EDGE('',*,*,#210,.F.);
#175=ORIENTED_EDGE('',*,*,#264,.F.);
#176=ORIENTED_EDGE('',*,*,#212,.F.);
#177=ORIENTED_EDGE('',*,*,#249,.F.);
#178=ORIENTED_EDGE('',*,*,#216,.F.);
#179=ORIENTED_EDGE('',*,*,#262,.F.);
#180=ORIENTED_EDGE('',*,*,#222,.F.);
#181=ORIENTED_EDGE('',*,*,#248,.F.);
#182=ORIENTED_EDGE('',*,*,#214,.F.);
#183=ORIENTED_EDGE('',*,*,#263,.F.);
#184=ORIENTED_EDGE('',*,*,#218,.F.);
#185=ORIENTED_EDGE('',*,*,#265,.T.);
#186=ORIENTED_EDGE('',*,*,#255,.F.);
#187=ORIENTED_EDGE('',*,*,#266,.T.);
#188=ORIENTED_EDGE('',*,*,#267,.F.);
#189=ORIENTED_EDGE('',*,*,#265,.F.);
#190=ORIENTED_EDGE('',*,*,#267,.T.);
#191=ORIENTED_EDGE('',*,*,#268,.T.);
#192=ORIENTED_EDGE('',*,*,#256,.F.);
#193=ORIENTED_EDGE('',*,*,#269,.T.);
#194=ORIENTED_EDGE('',*,*,#270,.F.);
#195=ORIENTED_EDGE('',*,*,#268,.F.);
#196=ORIENTED_EDGE('',*,*,#270,.T.);
#197=ORIENTED_EDGE('',*,*,#244,.F.);
#198=ORIENTED_EDGE('',*,*,#266,.F.);
#199=ORIENTED_EDGE('',*,*,#245,.F.);
#200=ORIENTED_EDGE('',*,*,#269,.F.);
#201=ORIENTED_EDGE('',*,*,#254,.F.);
#202=ORIENTED_EDGE('',*,*,#243,.T.);
#203=EDGE_CURVE('',#271,#272,#323,.T.);
#204=EDGE_CURVE('',#272,#273,#324,.F.);
#205=EDGE_CURVE('',#274,#273,#325,.T.);
#206=EDGE_CURVE('',#274,#271,#326,.T.);
#207=EDGE_CURVE('',#275,#276,#327,.T.);
#208=EDGE_CURVE('',#276,#277,#328,.T.);
#209=EDGE_CURVE('',#278,#277,#329,.T.);
#210=EDGE_CURVE('',#278,#275,#330,.F.);
#211=EDGE_CURVE('',#279,#280,#331,.T.);
#212=EDGE_CURVE('',#280,#281,#332,.T.);
#213=EDGE_CURVE('',#282,#281,#333,.T.);
#214=EDGE_CURVE('',#282,#279,#334,.F.);
#215=EDGE_CURVE('',#283,#284,#335,.T.);
#216=EDGE_CURVE('',#284,#285,#336,.F.);
#217=EDGE_CURVE('',#286,#285,#337,.T.);
#218=EDGE_CURVE('',#286,#283,#338,.T.);
#219=EDGE_CURVE('',#287,#288,#339,.T.);
#220=EDGE_CURVE('',#287,#289,#340,.F.);
#221=EDGE_CURVE('',#289,#290,#341,.T.);
#222=EDGE_CURVE('',#290,#288,#342,.T.);
#223=EDGE_CURVE('',#291,#292,#343,.T.);
#224=EDGE_CURVE('',#292,#293,#344,.F.);
#225=EDGE_CURVE('',#294,#293,#345,.T.);
#226=EDGE_CURVE('',#294,#291,#346,.T.);
#227=EDGE_CURVE('',#295,#296,#347,.T.);
#228=EDGE_CURVE('',#296,#297,#348,.F.);
#229=EDGE_CURVE('',#298,#297,#349,.T.);
#230=EDGE_CURVE('',#298,#295,#350,.T.);
#231=EDGE_CURVE('',#299,#299,#14,.T.);
#232=EDGE_CURVE('',#300,#300,#15,.T.);
#233=EDGE_CURVE('',#301,#301,#16,.T.);
#234=EDGE_CURVE('',#302,#302,#17,.T.);
#235=EDGE_CURVE('',#303,#303,#18,.T.);
#236=EDGE_CURVE('',#304,#304,#19,.T.);
#237=EDGE_CURVE('',#305,#306,#351,.T.);
#238=EDGE_CURVE('',#305,#307,#352,.F.);
#239=EDGE_CURVE('',#307,#308,#353,.T.);
#240=EDGE_CURVE('',#308,#306,#354,.T.);
#241=EDGE_CURVE('',#309,#309,#20,.F.);
#242=EDGE_CURVE('',#310,#310,#21,.F.);
#243=EDGE_CURVE('',#311,#311,#22,.T.);
#244=EDGE_CURVE('',#312,#312,#23,.F.);
#245=EDGE_CURVE('',#313,#313,#24,.F.);
#246=EDGE_CURVE('',#273,#276,#25,.T.);
#247=EDGE_CURVE('',#275,#280,#26,.T.);
#248=EDGE_CURVE('',#279,#286,#27,.T.);
#249=EDGE_CURVE('',#285,#290,#28,.T.);
#250=EDGE_CURVE('',#289,#294,#29,.T.);
#251=EDGE_CURVE('',#293,#298,#30,.T.);
#252=EDGE_CURVE('',#297,#308,#31,.F.);
#253=EDGE_CURVE('',#307,#274,#32,.F.);
#254=EDGE_CURVE('',#314,#314,#33,.T.);
#255=EDGE_CURVE('',#315,#315,#34,.T.);
#256=EDGE_CURVE('',#316,#316,#35,.T.);
#257=EDGE_CURVE('',#277,#272,#36,.F.);
#258=EDGE_CURVE('',#271,#305,#37,.T.);
#259=EDGE_CURVE('',#306,#296,#38,.T.);
#260=EDGE_CURVE('',#295,#292,#39,.F.);
#261=EDGE_CURVE('',#291,#287,#40,.F.);
#262=EDGE_CURVE('',#288,#284,#41,.F.);
#263=EDGE_CURVE('',#283,#282,#42,.F.);
#264=EDGE_CURVE('',#281,#278,#43,.F.);
#265=EDGE_CURVE('',#317,#317,#44,.T.);
#266=EDGE_CURVE('',#318,#318,#45,.T.);
#267=EDGE_CURVE('',#319,#319,#46,.T.);
#268=EDGE_CURVE('',#320,#320,#47,.T.);
#269=EDGE_CURVE('',#321,#321,#48,.T.);
#270=EDGE_CURVE('',#322,#322,#49,.T.);
#271=VERTEX_POINT('',#797);
#272=VERTEX_POINT('',#798);
#273=VERTEX_POINT('',#800);
#274=VERTEX_POINT('',#802);
#275=VERTEX_POINT('',#806);
#276=VERTEX_POINT('',#807);
#277=VERTEX_POINT('',#809);
#278=VERTEX_POINT('',#811);
#279=VERTEX_POINT('',#815);
#280=VERTEX_POINT('',#816);
#281=VERTEX_POINT('',#818);
#282=VERTEX_POINT('',#820);
#283=VERTEX_POINT('',#824);
#284=VERTEX_POINT('',#825);
#285=VERTEX_POINT('',#827);
#286=VERTEX_POINT('',#829);
#287=VERTEX_POINT('',#833);
#288=VERTEX_POINT('',#834);
#289=VERTEX_POINT('',#836);
#290=VERTEX_POINT('',#838);
#291=VERTEX_POINT('',#842);
#292=VERTEX_POINT('',#843);
#293=VERTEX_POINT('',#845);
#294=VERTEX_POINT('',#847);
#295=VERTEX_POINT('',#851);
#296=VERTEX_POINT('',#852);
#297=VERTEX_POINT('',#854);
#298=VERTEX_POINT('',#856);
#299=VERTEX_POINT('',#860);
#300=VERTEX_POINT('',#862);
#301=VERTEX_POINT('',#865);
#302=VERTEX_POINT('',#867);
#303=VERTEX_POINT('',#870);
#304=VERTEX_POINT('',#872);
#305=VERTEX_POINT('',#875);
#306=VERTEX_POINT('',#876);
#307=VERTEX_POINT('',#878);
#308=VERTEX_POINT('',#880);
#309=VERTEX_POINT('',#884);
#310=VERTEX_POINT('',#886);
#311=VERTEX_POINT('',#889);
#312=VERTEX_POINT('',#891);
#313=VERTEX_POINT('',#893);
#314=VERTEX_POINT('',#904);
#315=VERTEX_POINT('',#906);
#316=VERTEX_POINT('',#908);
#317=VERTEX_POINT('',#927);
#318=VERTEX_POINT('',#930);
#319=VERTEX_POINT('',#932);
#320=VERTEX_POINT('',#936);
#321=VERTEX_POINT('',#939);
#322=VERTEX_POINT('',#941);
#323=LINE('',#796,#355);
#324=LINE('',#799,#356);
#325=LINE('',#801,#357);
#326=LINE('',#803,#358);
#327=LINE('',#805,#359);
#328=LINE('',#808,#360);
#329=LINE('',#810,#361);
#330=LINE('',#812,#362);
#331=LINE('',#814,#363);
#332=LINE('',#817,#364);
#333=LINE('',#819,#365);
#334=LINE('',#821,#366);
#335=LINE('',#823,#367);
#336=LINE('',#826,#368);
#337=LINE('',#828,#369);
#338=LINE('',#830,#370);
#339=LINE('',#832,#371);
#340=LINE('',#835,#372);
#341=LINE('',#837,#373);
#342=LINE('',#839,#374);
#343=LINE('',#841,#375);
#344=LINE('',#844,#376);
#345=LINE('',#846,#377);
#346=LINE('',#848,#378);
#347=LINE('',#850,#379);
#348=LINE('',#853,#380);
#349=LINE('',#855,#381);
#350=LINE('',#857,#382);
#351=LINE('',#874,#383);
#352=LINE('',#877,#384);
#353=LINE('',#879,#385);
#354=LINE('',#881,#386);
#355=VECTOR('',#630,1.);
#356=VECTOR('',#631,1.);
#357=VECTOR('',#632,1.);
#358=VECTOR('',#633,1.);
#359=VECTOR('',#636,1.);
#360=VECTOR('',#637,1.);
#361=VECTOR('',#638,1.);
#362=VECTOR('',#639,1.);
#363=VECTOR('',#642,1.);
#364=VECTOR('',#643,1.);
#365=VECTOR('',#644,1.);
#366=VECTOR('',#645,1.);
#367=VECTOR('',#648,1.);
#368=VECTOR('',#649,1.);
#369=VECTOR('',#650,1.);
#370=VECTOR('',#651,1.);
#371=VECTOR('',#654,1.);
#372=VECTOR('',#655,1.);
#373=VECTOR('',#656,1.);
#374=VECTOR('',#657,1.);
#375=VECTOR('',#660,1.);
#376=VECTOR('',#661,1.);
#377=VECTOR('',#662,1.);
#378=VECTOR('',#663,1.);
#379=VECTOR('',#666,1.);
#380=VECTOR('',#667,1.);
#381=VECTOR('',#668,1.);
#382=VECTOR('',#669,1.);
#383=VECTOR('',#690,1.);
#384=VECTOR('',#691,1.);
#385=VECTOR('',#692,1.);
#386=VECTOR('',#693,1.);
#387=EDGE_LOOP('',(#67,#68,#69,#70));
#388=EDGE_LOOP('',(#71,#72,#73,#74));
#389=EDGE_LOOP('',(#75,#76,#77,#78));
#390=EDGE_LOOP('',(#79,#80,#81,#82));
#391=EDGE_LOOP('',(#83,#84,#85,#86));
#392=EDGE_LOOP('',(#87,#88,#89,#90));
#393=EDGE_LOOP('',(#91,#92,#93,#94));
#394=EDGE_LOOP('',(#95));
#395=EDGE_LOOP('',(#96));
#396=EDGE_LOOP('',(#97));
#397=EDGE_LOOP('',(#98));
#398=EDGE_LOOP('',(#99));
#399=EDGE_LOOP('',(#100));
#400=EDGE_LOOP('',(#101,#102,#103,#104));
#401=EDGE_LOOP('',(#105));
#402=EDGE_LOOP('',(#106));
#403=EDGE_LOOP('',(#107));
#404=EDGE_LOOP('',(#108));
#405=EDGE_LOOP('',(#109));
#406=EDGE_LOOP('',(#110,#111,#112,#113,#114,#115,#116,#117,#118,#119,#120,
#121,#122,#123,#124,#125));
#407=EDGE_LOOP('',(#126));
#408=EDGE_LOOP('',(#127));
#409=EDGE_LOOP('',(#128));
#410=EDGE_LOOP('',(#129));
#411=EDGE_LOOP('',(#130));
#412=EDGE_LOOP('',(#131));
#413=EDGE_LOOP('',(#132));
#414=EDGE_LOOP('',(#133,#134,#135,#136,#137,#138,#139,#140,#141,#142,#143,
#144,#145,#146,#147,#148));
#415=EDGE_LOOP('',(#149));
#416=EDGE_LOOP('',(#150));
#417=EDGE_LOOP('',(#151));
#418=EDGE_LOOP('',(#152));
#419=EDGE_LOOP('',(#153,#154,#155,#156));
#420=EDGE_LOOP('',(#157,#158,#159,#160));
#421=EDGE_LOOP('',(#161,#162,#163,#164));
#422=EDGE_LOOP('',(#165,#166,#167,#168));
#423=EDGE_LOOP('',(#169,#170,#171,#172));
#424=EDGE_LOOP('',(#173,#174,#175,#176));
#425=EDGE_LOOP('',(#177,#178,#179,#180));
#426=EDGE_LOOP('',(#181,#182,#183,#184));
#427=EDGE_LOOP('',(#185));
#428=EDGE_LOOP('',(#186));
#429=EDGE_LOOP('',(#187));
#430=EDGE_LOOP('',(#188));
#431=EDGE_LOOP('',(#189));
#432=EDGE_LOOP('',(#190));
#433=EDGE_LOOP('',(#191));
#434=EDGE_LOOP('',(#192));
#435=EDGE_LOOP('',(#193));
#436=EDGE_LOOP('',(#194));
#437=EDGE_LOOP('',(#195));
#438=EDGE_LOOP('',(#196));
#439=EDGE_LOOP('',(#197));
#440=EDGE_LOOP('',(#198));
#441=EDGE_LOOP('',(#199));
#442=EDGE_LOOP('',(#200));
#443=EDGE_LOOP('',(#201));
#444=EDGE_LOOP('',(#202));
#445=FACE_BOUND('',#387,.T.);
#446=FACE_BOUND('',#388,.T.);
#447=FACE_BOUND('',#389,.T.);
#448=FACE_BOUND('',#390,.T.);
#449=FACE_BOUND('',#391,.T.);
#450=FACE_BOUND('',#392,.T.);
#451=FACE_BOUND('',#393,.T.);
#452=FACE_BOUND('',#394,.T.);
#453=FACE_BOUND('',#395,.T.);
#454=FACE_BOUND('',#396,.T.);
#455=FACE_BOUND('',#397,.T.);
#456=FACE_BOUND('',#398,.T.);
#457=FACE_BOUND('',#399,.T.);
#458=FACE_BOUND('',#400,.T.);
#459=FACE_BOUND('',#401,.T.);
#460=FACE_BOUND('',#402,.T.);
#461=FACE_BOUND('',#403,.T.);
#462=FACE_BOUND('',#404,.T.);
#463=FACE_BOUND('',#405,.T.);
#464=FACE_BOUND('',#406,.T.);
#465=FACE_BOUND('',#407,.T.);
#466=FACE_BOUND('',#408,.T.);
#467=FACE_BOUND('',#409,.T.);
#468=FACE_BOUND('',#410,.T.);
#469=FACE_BOUND('',#411,.T.);
#470=FACE_BOUND('',#412,.T.);
#471=FACE_BOUND('',#413,.T.);
#472=FACE_BOUND('',#414,.T.);
#473=FACE_BOUND('',#415,.T.);
#474=FACE_BOUND('',#416,.T.);
#475=FACE_BOUND('',#417,.T.);
#476=FACE_BOUND('',#418,.T.);
#477=FACE_BOUND('',#419,.T.);
#478=FACE_BOUND('',#420,.T.);
#479=FACE_BOUND('',#421,.T.);
#480=FACE_BOUND('',#422,.T.);
#481=FACE_BOUND('',#423,.T.);
#482=FACE_BOUND('',#424,.T.);
#483=FACE_BOUND('',#425,.T.);
#484=FACE_BOUND('',#426,.T.);
#485=FACE_BOUND('',#427,.T.);
#486=FACE_BOUND('',#428,.T.);
#487=FACE_BOUND('',#429,.T.);
#488=FACE_BOUND('',#430,.T.);
#489=FACE_BOUND('',#431,.T.);
#490=FACE_BOUND('',#432,.T.);
#491=FACE_BOUND('',#433,.T.);
#492=FACE_BOUND('',#434,.T.);
#493=FACE_BOUND('',#435,.T.);
#494=FACE_BOUND('',#436,.T.);
#495=FACE_BOUND('',#437,.T.);
#496=FACE_BOUND('',#438,.T.);
#497=FACE_BOUND('',#439,.T.);
#498=FACE_BOUND('',#440,.T.);
#499=FACE_BOUND('',#441,.T.);
#500=FACE_BOUND('',#442,.T.);
#501=FACE_BOUND('',#443,.T.);
#502=FACE_BOUND('',#444,.T.);
#503=PLANE('',#559);
#504=PLANE('',#560);
#505=PLANE('',#561);
#506=PLANE('',#562);
#507=PLANE('',#563);
#508=PLANE('',#564);
#509=PLANE('',#565);
#510=PLANE('',#575);
#511=PLANE('',#579);
#512=PLANE('',#591);
#513=PLANE('',#616);
#514=PLANE('',#622);
#515=ADVANCED_FACE('',(#445),#503,.F.);
#516=ADVANCED_FACE('',(#446),#504,.T.);
#517=ADVANCED_FACE('',(#447),#505,.T.);
#518=ADVANCED_FACE('',(#448),#506,.F.);
#519=ADVANCED_FACE('',(#449),#507,.T.);
#520=ADVANCED_FACE('',(#450),#508,.F.);
#521=ADVANCED_FACE('',(#451),#509,.F.);
#522=ADVANCED_FACE('',(#452,#453),#50,.F.);
#523=ADVANCED_FACE('',(#454,#455),#51,.F.);
#524=ADVANCED_FACE('',(#456,#457),#52,.F.);
#525=ADVANCED_FACE('',(#458),#510,.T.);
#526=ADVANCED_FACE('',(#459,#460),#53,.F.);
#527=ADVANCED_FACE('',(#461,#462,#463,#464,#465,#466,#467,#468),#511,.T.);
#528=ADVANCED_FACE('',(#469,#470,#471,#472,#473,#474,#475,#476),#512,.F.);
#529=ADVANCED_FACE('',(#477),#54,.T.);
#530=ADVANCED_FACE('',(#478),#55,.F.);
#531=ADVANCED_FACE('',(#479),#56,.F.);
#532=ADVANCED_FACE('',(#480),#57,.T.);
#533=ADVANCED_FACE('',(#481),#58,.T.);
#534=ADVANCED_FACE('',(#482),#59,.T.);
#535=ADVANCED_FACE('',(#483),#60,.T.);
#536=ADVANCED_FACE('',(#484),#61,.T.);
#537=ADVANCED_FACE('',(#485,#486),#62,.F.);
#538=ADVANCED_FACE('',(#487,#488),#63,.T.);
#539=ADVANCED_FACE('',(#489,#490),#513,.T.);
#540=ADVANCED_FACE('',(#491,#492),#64,.F.);
#541=ADVANCED_FACE('',(#493,#494),#65,.T.);
#542=ADVANCED_FACE('',(#495,#496),#514,.T.);
#543=ADVANCED_FACE('',(#497,#498),#12,.F.);
#544=ADVANCED_FACE('',(#499,#500),#13,.F.);
#545=ADVANCED_FACE('',(#501,#502),#66,.F.);
#546=CLOSED_SHELL('',(#515,#516,#517,#518,#519,#520,#521,#522,#523,#524,
#525,#526,#527,#528,#529,#530,#531,#532,#533,#534,#535,#536,#537,#538,#539,
#540,#541,#542,#543,#544,#545));
#547=STYLED_ITEM('',(#548),#555);
#548=PRESENTATION_STYLE_ASSIGNMENT((#549));
#549=SURFACE_STYLE_USAGE(.BOTH.,#550);
#550=SURFACE_SIDE_STYLE('',(#551));
#551=SURFACE_STYLE_FILL_AREA(#552);
#552=FILL_AREA_STYLE('',(#553));
#553=FILL_AREA_STYLE_COLOUR('',#554);
#554=COLOUR_RGB('',0.980392156862745,0.713725490196078,0.00392156862745098);
#555=MANIFOLD_SOLID_BREP('Part 2',#546);
#556=SHAPE_DEFINITION_REPRESENTATION(#952,#557);
#557=SHAPE_REPRESENTATION('Part 2',(#558),#947);
#558=AXIS2_PLACEMENT_3D('',#794,#626,#627);
#559=AXIS2_PLACEMENT_3D('',#795,#628,#629);
#560=AXIS2_PLACEMENT_3D('',#804,#634,#635);
#561=AXIS2_PLACEMENT_3D('',#813,#640,#641);
#562=AXIS2_PLACEMENT_3D('',#822,#646,#647);
#563=AXIS2_PLACEMENT_3D('',#831,#652,#653);
#564=AXIS2_PLACEMENT_3D('',#840,#658,#659);
#565=AXIS2_PLACEMENT_3D('',#849,#664,#665);
#566=AXIS2_PLACEMENT_3D('',#858,#670,#671);
#567=AXIS2_PLACEMENT_3D('',#859,#672,#673);
#568=AXIS2_PLACEMENT_3D('',#861,#674,#675);
#569=AXIS2_PLACEMENT_3D('',#863,#676,#677);
#570=AXIS2_PLACEMENT_3D('',#864,#678,#679);
#571=AXIS2_PLACEMENT_3D('',#866,#680,#681);
#572=AXIS2_PLACEMENT_3D('',#868,#682,#683);
#573=AXIS2_PLACEMENT_3D('',#869,#684,#685);
#574=AXIS2_PLACEMENT_3D('',#871,#686,#687);
#575=AXIS2_PLACEMENT_3D('',#873,#688,#689);
#576=AXIS2_PLACEMENT_3D('',#882,#694,#695);
#577=AXIS2_PLACEMENT_3D('',#883,#696,#697);
#578=AXIS2_PLACEMENT_3D('',#885,#698,#699);
#579=AXIS2_PLACEMENT_3D('',#887,#700,#701);
#580=AXIS2_PLACEMENT_3D('',#888,#702,#703);
#581=AXIS2_PLACEMENT_3D('',#890,#704,#705);
#582=AXIS2_PLACEMENT_3D('',#892,#706,#707);
#583=AXIS2_PLACEMENT_3D('',#894,#708,#709);
#584=AXIS2_PLACEMENT_3D('',#895,#710,#711);
#585=AXIS2_PLACEMENT_3D('',#896,#712,#713);
#586=AXIS2_PLACEMENT_3D('',#897,#714,#715);
#587=AXIS2_PLACEMENT_3D('',#898,#716,#717);
#588=AXIS2_PLACEMENT_3D('',#899,#718,#719);
#589=AXIS2_PLACEMENT_3D('',#900,#720,#721);
#590=AXIS2_PLACEMENT_3D('',#901,#722,#723);
#591=AXIS2_PLACEMENT_3D('',#902,#724,#725);
#592=AXIS2_PLACEMENT_3D('',#903,#726,#727);
#593=AXIS2_PLACEMENT_3D('',#905,#728,#729);
#594=AXIS2_PLACEMENT_3D('',#907,#730,#731);
#595=AXIS2_PLACEMENT_3D('',#909,#732,#733);
#596=AXIS2_PLACEMENT_3D('',#910,#734,#735);
#597=AXIS2_PLACEMENT_3D('',#911,#736,#737);
#598=AXIS2_PLACEMENT_3D('',#912,#738,#739);
#599=AXIS2_PLACEMENT_3D('',#913,#740,#741);
#600=AXIS2_PLACEMENT_3D('',#914,#742,#743);
#601=AXIS2_PLACEMENT_3D('',#915,#744,#745);
#602=AXIS2_PLACEMENT_3D('',#916,#746,#747);
#603=AXIS2_PLACEMENT_3D('',#917,#748,#749);
#604=AXIS2_PLACEMENT_3D('',#918,#750,#751);
#605=AXIS2_PLACEMENT_3D('',#919,#752,#753);
#606=AXIS2_PLACEMENT_3D('',#920,#754,#755);
#607=AXIS2_PLACEMENT_3D('',#921,#756,#757);
#608=AXIS2_PLACEMENT_3D('',#922,#758,#759);
#609=AXIS2_PLACEMENT_3D('',#923,#760,#761);
#610=AXIS2_PLACEMENT_3D('',#924,#762,#763);
#611=AXIS2_PLACEMENT_3D('',#925,#764,#765);
#612=AXIS2_PLACEMENT_3D('',#926,#766,#767);
#613=AXIS2_PLACEMENT_3D('',#928,#768,#769);
#614=AXIS2_PLACEMENT_3D('',#929,#770,#771);
#615=AXIS2_PLACEMENT_3D('',#931,#772,#773);
#616=AXIS2_PLACEMENT_3D('',#933,#774,#775);
#617=AXIS2_PLACEMENT_3D('',#934,#776,#777);
#618=AXIS2_PLACEMENT_3D('',#935,#778,#779);
#619=AXIS2_PLACEMENT_3D('',#937,#780,#781);
#620=AXIS2_PLACEMENT_3D('',#938,#782,#783);
#621=AXIS2_PLACEMENT_3D('',#940,#784,#785);
#622=AXIS2_PLACEMENT_3D('',#942,#786,#787);
#623=AXIS2_PLACEMENT_3D('',#943,#788,#789);
#624=AXIS2_PLACEMENT_3D('',#944,#790,#791);
#625=AXIS2_PLACEMENT_3D('',#945,#792,#793);
#626=DIRECTION('',(0.,0.,1.));
#627=DIRECTION('',(1.,0.,0.));
#628=DIRECTION('',(1.,0.,0.));
#629=DIRECTION('',(0.,0.,-1.));
#630=DIRECTION('',(0.,1.,0.));
#631=DIRECTION('',(0.,0.,1.));
#632=DIRECTION('',(0.,1.,0.));
#633=DIRECTION('',(0.,0.,1.));
#634=DIRECTION('',(0.,1.,0.));
#635=DIRECTION('',(0.,0.,1.));
#636=DIRECTION('',(-1.,0.,0.));
#637=DIRECTION('',(0.,0.,1.));
#638=DIRECTION('',(-1.,0.,0.));
#639=DIRECTION('',(0.,0.,1.));
#640=DIRECTION('',(1.,0.,0.));
#641=DIRECTION('',(0.,0.,-1.));
#642=DIRECTION('',(0.,1.,0.));
#643=DIRECTION('',(0.,0.,1.));
#644=DIRECTION('',(0.,1.,0.));
#645=DIRECTION('',(0.,0.,1.));
#646=DIRECTION('',(0.,1.,0.));
#647=DIRECTION('',(0.,0.,1.));
#648=DIRECTION('',(-1.,0.,0.));
#649=DIRECTION('',(0.,0.,1.));
#650=DIRECTION('',(-1.,0.,0.));
#651=DIRECTION('',(0.,0.,1.));
#652=DIRECTION('',(-1.,0.,0.));
#653=DIRECTION('',(0.,0.,1.));
#654=DIRECTION('',(0.,-1.,0.));
#655=DIRECTION('',(0.,0.,1.));
#656=DIRECTION('',(0.,-1.,0.));
#657=DIRECTION('',(0.,0.,1.));
#658=DIRECTION('',(0.,-1.,0.));
#659=DIRECTION('',(0.,0.,-1.));
#660=DIRECTION('',(1.,0.,0.));
#661=DIRECTION('',(0.,0.,1.));
#662=DIRECTION('',(1.,0.,0.));
#663=DIRECTION('',(0.,0.,1.));
#664=DIRECTION('',(-1.,0.,0.));
#665=DIRECTION('',(0.,0.,1.));
#666=DIRECTION('',(0.,-1.,0.));
#667=DIRECTION('',(0.,0.,1.));
#668=DIRECTION('',(0.,-1.,0.));
#669=DIRECTION('',(0.,0.,1.));
#670=DIRECTION('',(0.,0.,1.));
#671=DIRECTION('',(1.,0.,0.));
#672=DIRECTION('',(0.,0.,-1.));
#673=DIRECTION('',(-1.,0.,0.));
#674=DIRECTION('',(0.,0.,-1.));
#675=DIRECTION('',(-1.,0.,0.));
#676=DIRECTION('',(0.,0.,1.));
#677=DIRECTION('',(1.,0.,0.));
#678=DIRECTION('',(0.,0.,-1.));
#679=DIRECTION('',(-1.,0.,0.));
#680=DIRECTION('',(0.,0.,-1.));
#681=DIRECTION('',(-1.,0.,0.));
#682=DIRECTION('',(0.,0.,1.));
#683=DIRECTION('',(1.,0.,0.));
#684=DIRECTION('',(0.,0.,-1.));
#685=DIRECTION('',(-1.,0.,0.));
#686=DIRECTION('',(0.,0.,-1.));
#687=DIRECTION('',(-1.,0.,0.));
#688=DIRECTION('',(0.,1.,0.));
#689=DIRECTION('',(0.,0.,1.));
#690=DIRECTION('',(-1.,0.,0.));
#691=DIRECTION('',(0.,0.,1.));
#692=DIRECTION('',(-1.,0.,0.));
#693=DIRECTION('',(0.,0.,1.));
#694=DIRECTION('',(0.,0.,1.));
#695=DIRECTION('',(1.,0.,0.));
#696=DIRECTION('',(0.,0.,-1.));
#697=DIRECTION('',(-1.,0.,0.));
#698=DIRECTION('',(0.,0.,-1.));
#699=DIRECTION('',(-1.,0.,0.));
#700=DIRECTION('',(0.,0.,-1.));
#701=DIRECTION('',(1.,0.,0.));
#702=DIRECTION('',(0.,0.,-1.));
#703=DIRECTION('',(-1.,0.,0.));
#704=DIRECTION('',(0.,0.,-1.));
#705=DIRECTION('',(-1.,0.,0.));
#706=DIRECTION('',(0.,0.,-1.));
#707=DIRECTION('',(-1.,0.,0.));
#708=DIRECTION('',(0.,0.,-1.));
#709=DIRECTION('',(-1.,0.,0.));
#710=DIRECTION('',(0.,0.,-1.));
#711=DIRECTION('',(-1.,0.,0.));
#712=DIRECTION('',(0.,0.,-1.));
#713=DIRECTION('',(-1.,0.,0.));
#714=DIRECTION('',(0.,0.,-1.));
#715=DIRECTION('',(-1.,0.,0.));
#716=DIRECTION('',(0.,0.,-1.));
#717=DIRECTION('',(-1.,0.,0.));
#718=DIRECTION('',(0.,0.,-1.));
#719=DIRECTION('',(-1.,0.,0.));
#720=DIRECTION('',(0.,0.,-1.));
#721=DIRECTION('',(-1.,0.,0.));
#722=DIRECTION('',(0.,0.,-1.));
#723=DIRECTION('',(-1.,0.,0.));
#724=DIRECTION('',(0.,0.,-1.));
#725=DIRECTION('',(1.,0.,0.));
#726=DIRECTION('',(0.,0.,-1.));
#727=DIRECTION('',(-1.,0.,0.));
#728=DIRECTION('',(0.,0.,-1.));
#729=DIRECTION('',(-1.,0.,0.));
#730=DIRECTION('',(0.,0.,-1.));
#731=DIRECTION('',(-1.,0.,0.));
#732=DIRECTION('',(0.,0.,-1.));
#733=DIRECTION('',(-1.,0.,0.));
#734=DIRECTION('',(0.,0.,-1.));
#735=DIRECTION('',(-1.,0.,0.));
#736=DIRECTION('',(0.,0.,-1.));
#737=DIRECTION('',(-1.,0.,0.));
#738=DIRECTION('',(0.,0.,-1.));
#739=DIRECTION('',(-1.,0.,0.));
#740=DIRECTION('',(0.,0.,-1.));
#741=DIRECTION('',(-1.,0.,0.));
#742=DIRECTION('',(0.,0.,-1.));
#743=DIRECTION('',(-1.,0.,0.));
#744=DIRECTION('',(0.,0.,-1.));
#745=DIRECTION('',(-1.,0.,0.));
#746=DIRECTION('',(0.,0.,-1.));
#747=DIRECTION('',(-1.,0.,0.));
#748=DIRECTION('',(0.,0.,-1.));
#749=DIRECTION('',(-1.,0.,0.));
#750=DIRECTION('',(0.,0.,1.));
#751=DIRECTION('',(1.,0.,0.));
#752=DIRECTION('',(0.,0.,1.));
#753=DIRECTION('',(1.,0.,0.));
#754=DIRECTION('',(0.,0.,1.));
#755=DIRECTION('',(1.,0.,0.));
#756=DIRECTION('',(0.,0.,-1.));
#757=DIRECTION('',(-1.,0.,0.));
#758=DIRECTION('',(0.,0.,1.));
#759=DIRECTION('',(1.,0.,0.));
#760=DIRECTION('',(0.,0.,-1.));
#761=DIRECTION('',(-1.,0.,0.));
#762=DIRECTION('',(0.,0.,-1.));
#763=DIRECTION('',(-1.,0.,0.));
#764=DIRECTION('',(0.,0.,1.));
#765=DIRECTION('',(1.,0.,0.));
#766=DIRECTION('',(0.,0.,-1.));
#767=DIRECTION('',(-1.,0.,0.));
#768=DIRECTION('',(0.,0.,1.));
#769=DIRECTION('',(1.,0.,0.));
#770=DIRECTION('',(0.,0.,-1.));
#771=DIRECTION('',(-1.,0.,0.));
#772=DIRECTION('',(0.,0.,-1.));
#773=DIRECTION('',(-1.,0.,0.));
#774=DIRECTION('',(0.,0.,-1.));
#775=DIRECTION('',(1.,0.,0.));
#776=DIRECTION('',(0.,0.,1.));
#777=DIRECTION('',(1.,0.,0.));
#778=DIRECTION('',(0.,0.,-1.));
#779=DIRECTION('',(-1.,0.,0.));
#780=DIRECTION('',(0.,0.,1.));
#781=DIRECTION('',(1.,0.,0.));
#782=DIRECTION('',(0.,0.,-1.));
#783=DIRECTION('',(-1.,0.,0.));
#784=DIRECTION('',(0.,0.,-1.));
#785=DIRECTION('',(-1.,0.,0.));
#786=DIRECTION('',(0.,0.,-1.));
#787=DIRECTION('',(1.,0.,0.));
#788=DIRECTION('',(0.,0.,-1.));
#789=DIRECTION('',(-1.,0.,0.));
#790=DIRECTION('',(0.,0.,-1.));
#791=DIRECTION('',(-1.,0.,0.));
#792=DIRECTION('',(0.,0.,-1.));
#793=DIRECTION('',(-1.,0.,0.));
#794=CARTESIAN_POINT('',(0.,0.,0.));
#795=CARTESIAN_POINT('',(0.03855,-0.014299666482679,-0.0171));
#796=CARTESIAN_POINT('',(0.03855,-0.014299666482679,-0.0155));
#797=CARTESIAN_POINT('',(0.03855,-0.0183996664826791,-0.0155));
#798=CARTESIAN_POINT('',(0.03855,-0.00829966648267902,-0.0155));
#799=CARTESIAN_POINT('',(0.03855,-0.00829966648267902,-0.0171));
#800=CARTESIAN_POINT('',(0.03855,-0.00829966648267902,-0.0171));
#801=CARTESIAN_POINT('',(0.03855,-0.014299666482679,-0.0171));
#802=CARTESIAN_POINT('',(0.03855,-0.0183996664826791,-0.0171));
#803=CARTESIAN_POINT('',(0.03855,-0.0183996664826791,-0.0171));
#804=CARTESIAN_POINT('',(0.045725,-0.00639966648267902,-0.0171));
#805=CARTESIAN_POINT('',(0.045725,-0.00639966648267902,-0.0171));
#806=CARTESIAN_POINT('',(0.051,-0.00639966648267902,-0.0171));
#807=CARTESIAN_POINT('',(0.04045,-0.00639966648267902,-0.0171));
#808=CARTESIAN_POINT('',(0.04045,-0.00639966648267902,-0.0155));
#809=CARTESIAN_POINT('',(0.04045,-0.00639966648267902,-0.0155));
#810=CARTESIAN_POINT('',(0.045725,-0.00639966648267902,-0.0155));
#811=CARTESIAN_POINT('',(0.051,-0.00639966648267902,-0.0155));
#812=CARTESIAN_POINT('',(0.051,-0.00639966648267902,-0.0171));
#813=CARTESIAN_POINT('',(0.0529,-0.0339998332413395,-0.0171));
#814=CARTESIAN_POINT('',(0.0529,-0.0339998332413395,-0.0171));
#815=CARTESIAN_POINT('',(0.0529,-0.0578,-0.0171));
#816=CARTESIAN_POINT('',(0.0529,-0.00829966648267902,-0.0171));
#817=CARTESIAN_POINT('',(0.0529,-0.00829966648267902,-0.0171));
#818=CARTESIAN_POINT('',(0.0529,-0.00829966648267902,-0.0155));
#819=CARTESIAN_POINT('',(0.0529,-0.0339998332413395,-0.0155));
#820=CARTESIAN_POINT('',(0.0529,-0.0578,-0.0155));
#821=CARTESIAN_POINT('',(0.0529,-0.0578,-0.0171));
#822=CARTESIAN_POINT('',(0.045725,-0.0597,-0.0171));
#823=CARTESIAN_POINT('',(0.045725,-0.0597,-0.0155));
#824=CARTESIAN_POINT('',(0.051,-0.0597,-0.0155));
#825=CARTESIAN_POINT('',(0.0045,-0.0597,-0.0155));
#826=CARTESIAN_POINT('',(0.0045,-0.0597,-0.0171));
#827=CARTESIAN_POINT('',(0.0045,-0.0597,-0.0171));
#828=CARTESIAN_POINT('',(0.045725,-0.0597,-0.0171));
#829=CARTESIAN_POINT('',(0.051,-0.0597,-0.0171));
#830=CARTESIAN_POINT('',(0.051,-0.0597,-0.0155));
#831=CARTESIAN_POINT('',(0.0026,-0.0329,-0.0171));
#832=CARTESIAN_POINT('',(0.0026,-0.0329,-0.0155));
#833=CARTESIAN_POINT('',(0.0026,-0.008,-0.0155));
#834=CARTESIAN_POINT('',(0.0026,-0.0578,-0.0155));
#835=CARTESIAN_POINT('',(0.0026,-0.008,-0.0171));
#836=CARTESIAN_POINT('',(0.0026,-0.008,-0.0171));
#837=CARTESIAN_POINT('',(0.0026,-0.0329,-0.0171));
#838=CARTESIAN_POINT('',(0.0026,-0.0578,-0.0171));
#839=CARTESIAN_POINT('',(0.0026,-0.0578,-0.0155));
#840=CARTESIAN_POINT('',(0.009775,-0.0061,-0.0171));
#841=CARTESIAN_POINT('',(0.009775,-0.0061,-0.0155));
#842=CARTESIAN_POINT('',(0.0045,-0.0061,-0.0155));
#843=CARTESIAN_POINT('',(0.01505,-0.0061,-0.0155));
#844=CARTESIAN_POINT('',(0.01505,-0.0061,-0.0171));
#845=CARTESIAN_POINT('',(0.01505,-0.0061,-0.0171));
#846=CARTESIAN_POINT('',(0.009775,-0.0061,-0.0171));
#847=CARTESIAN_POINT('',(0.0045,-0.0061,-0.0171));
#848=CARTESIAN_POINT('',(0.0045,-0.0061,-0.0155));
#849=CARTESIAN_POINT('',(0.01695,-0.0131998332413395,-0.0171));
#850=CARTESIAN_POINT('',(0.01695,-0.0131998332413395,-0.0155));
#851=CARTESIAN_POINT('',(0.01695,-0.008,-0.0155));
#852=CARTESIAN_POINT('',(0.01695,-0.0183996664826791,-0.0155));
#853=CARTESIAN_POINT('',(0.01695,-0.0183996664826791,-0.0171));
#854=CARTESIAN_POINT('',(0.01695,-0.0183996664826791,-0.0171));
#855=CARTESIAN_POINT('',(0.01695,-0.0131998332413395,-0.0171));
#856=CARTESIAN_POINT('',(0.01695,-0.008,-0.0171));
#857=CARTESIAN_POINT('',(0.01695,-0.008,-0.0171));
#858=CARTESIAN_POINT('',(0.0045,-0.0126,-0.0171));
#859=CARTESIAN_POINT('',(0.0045,-0.0126,-0.0171));
#860=CARTESIAN_POINT('',(0.003675,-0.0126,-0.0171));
#861=CARTESIAN_POINT('',(0.0045,-0.0126,-0.0155));
#862=CARTESIAN_POINT('',(0.003675,-0.0126,-0.0155));
#863=CARTESIAN_POINT('',(0.01695,-0.0578,-0.0171));
#864=CARTESIAN_POINT('',(0.01695,-0.0578,-0.0171));
#865=CARTESIAN_POINT('',(0.016075,-0.0578,-0.0171));
#866=CARTESIAN_POINT('',(0.01695,-0.0578,-0.0155));
#867=CARTESIAN_POINT('',(0.016075,-0.0578,-0.0155));
#868=CARTESIAN_POINT('',(0.051,-0.00829966648267902,-0.0171));
#869=CARTESIAN_POINT('',(0.051,-0.00829966648267902,-0.0171));
#870=CARTESIAN_POINT('',(0.050125,-0.00829966648267902,-0.0171));
#871=CARTESIAN_POINT('',(0.051,-0.00829966648267902,-0.0155));
#872=CARTESIAN_POINT('',(0.050125,-0.00829966648267902,-0.0155));
#873=CARTESIAN_POINT('',(0.02775,-0.020299666482679,-0.0171));
#874=CARTESIAN_POINT('',(0.02775,-0.020299666482679,-0.0155));
#875=CARTESIAN_POINT('',(0.03665,-0.020299666482679,-0.0155));
#876=CARTESIAN_POINT('',(0.01885,-0.020299666482679,-0.0155));
#877=CARTESIAN_POINT('',(0.03665,-0.020299666482679,-0.0171));
#878=CARTESIAN_POINT('',(0.03665,-0.020299666482679,-0.0171));
#879=CARTESIAN_POINT('',(0.02775,-0.020299666482679,-0.0171));
#880=CARTESIAN_POINT('',(0.01885,-0.020299666482679,-0.0171));
#881=CARTESIAN_POINT('',(0.01885,-0.020299666482679,-0.0171));
#882=CARTESIAN_POINT('',(0.0045,-0.008,-0.0171));
#883=CARTESIAN_POINT('',(0.0045,-0.008,-0.0171));
#884=CARTESIAN_POINT('',(0.003625,-0.008,-0.0171));
#885=CARTESIAN_POINT('',(0.0045,-0.008,-0.0155));
#886=CARTESIAN_POINT('',(0.003625,-0.008,-0.0155));
#887=CARTESIAN_POINT('',(0.02775,-0.0329,-0.0171));
#888=CARTESIAN_POINT('',(0.02775,-0.0361966838224849,-0.0171));
#889=CARTESIAN_POINT('',(0.0160331591376028,-0.0361966838224849,-0.0171));
#890=CARTESIAN_POINT('',(0.0122466838224849,-0.0517,-0.0171));
#891=CARTESIAN_POINT('',(0.00724668382248494,-0.0517,-0.0171));
#892=CARTESIAN_POINT('',(0.0432533161775151,-0.0206933676449699,-0.0171));
#893=CARTESIAN_POINT('',(0.0382533161775151,-0.0206933676449699,-0.0171));
#894=CARTESIAN_POINT('',(0.04045,-0.00829966648267902,-0.0171));
#895=CARTESIAN_POINT('',(0.051,-0.00829966648267902,-0.0171));
#896=CARTESIAN_POINT('',(0.051,-0.0578,-0.0171));
#897=CARTESIAN_POINT('',(0.0045,-0.0578,-0.0171));
#898=CARTESIAN_POINT('',(0.0045,-0.008,-0.0171));
#899=CARTESIAN_POINT('',(0.01505,-0.008,-0.0171));
#900=CARTESIAN_POINT('',(0.01885,-0.0183996664826791,-0.0171));
#901=CARTESIAN_POINT('',(0.03665,-0.0183996664826791,-0.0171));
#902=CARTESIAN_POINT('',(0.02775,-0.0329,-0.0155));
#903=CARTESIAN_POINT('',(0.02775,-0.0361966838224849,-0.0155));
#904=CARTESIAN_POINT('',(0.0160331591376028,-0.0361966838224849,-0.0155));
#905=CARTESIAN_POINT('',(0.0122466838224849,-0.0517,-0.0155));
#906=CARTESIAN_POINT('',(0.00988418382248494,-0.0517,-0.0155));
#907=CARTESIAN_POINT('',(0.0432533161775151,-0.0206933676449699,-0.0155));
#908=CARTESIAN_POINT('',(0.0408908161775151,-0.0206933676449699,-0.0155));
#909=CARTESIAN_POINT('',(0.04045,-0.00829966648267902,-0.0155));
#910=CARTESIAN_POINT('',(0.03665,-0.0183996664826791,-0.0155));
#911=CARTESIAN_POINT('',(0.01885,-0.0183996664826791,-0.0155));
#912=CARTESIAN_POINT('',(0.01505,-0.008,-0.0155));
#913=CARTESIAN_POINT('',(0.0045,-0.008,-0.0155));
#914=CARTESIAN_POINT('',(0.0045,-0.0578,-0.0155));
#915=CARTESIAN_POINT('',(0.051,-0.0578,-0.0155));
#916=CARTESIAN_POINT('',(0.051,-0.00829966648267902,-0.0155));
#917=CARTESIAN_POINT('',(0.04045,-0.00829966648267902,-0.0171));
#918=CARTESIAN_POINT('',(0.03665,-0.0183996664826791,-0.0171));
#919=CARTESIAN_POINT('',(0.01885,-0.0183996664826791,-0.0171));
#920=CARTESIAN_POINT('',(0.01505,-0.008,-0.0171));
#921=CARTESIAN_POINT('',(0.0045,-0.008,-0.0171));
#922=CARTESIAN_POINT('',(0.051,-0.00829966648267902,-0.0171));
#923=CARTESIAN_POINT('',(0.0045,-0.0578,-0.0171));
#924=CARTESIAN_POINT('',(0.051,-0.0578,-0.0171));
#925=CARTESIAN_POINT('',(0.0122466838224849,-0.0517,-0.01966));
#926=CARTESIAN_POINT('',(0.0122466838224849,-0.0517,-0.01966));
#927=CARTESIAN_POINT('',(0.00988418382248494,-0.0517,-0.01966));
#928=CARTESIAN_POINT('',(0.0122466838224849,-0.0517,-0.01966));
#929=CARTESIAN_POINT('',(0.0122466838224849,-0.0517,-0.0186));
#930=CARTESIAN_POINT('',(0.00874668382248494,-0.0517,-0.0186));
#931=CARTESIAN_POINT('',(0.0122466838224849,-0.0517,-0.01966));
#932=CARTESIAN_POINT('',(0.00874668382248494,-0.0517,-0.01966));
#933=CARTESIAN_POINT('',(0.02775,-0.0329,-0.01966));
#934=CARTESIAN_POINT('',(0.0432533161775151,-0.0206933676449699,-0.01966));
#935=CARTESIAN_POINT('',(0.0432533161775151,-0.0206933676449699,-0.01966));
#936=CARTESIAN_POINT('',(0.0408908161775151,-0.0206933676449699,-0.01966));
#937=CARTESIAN_POINT('',(0.0432533161775151,-0.0206933676449699,-0.01966));
#938=CARTESIAN_POINT('',(0.0432533161775151,-0.0206933676449699,-0.0186));
#939=CARTESIAN_POINT('',(0.039753316177515,-0.0206933676449699,-0.0186));
#940=CARTESIAN_POINT('',(0.0432533161775151,-0.0206933676449699,-0.01966));
#941=CARTESIAN_POINT('',(0.039753316177515,-0.0206933676449699,-0.01966));
#942=CARTESIAN_POINT('',(0.02775,-0.0329,-0.01966));
#943=CARTESIAN_POINT('',(0.0122466838224849,-0.0517,-0.0186));
#944=CARTESIAN_POINT('',(0.0432533161775151,-0.0206933676449699,-0.0186));
#945=CARTESIAN_POINT('',(0.02775,-0.0361966838224849,-0.0155));
#946=MECHANICAL_DESIGN_GEOMETRIC_PRESENTATION_REPRESENTATION('',(#547),
#947);
#947=(
GEOMETRIC_REPRESENTATION_CONTEXT(3)
GLOBAL_UNCERTAINTY_ASSIGNED_CONTEXT((#948))
GLOBAL_UNIT_ASSIGNED_CONTEXT((#951,#950,#949))
REPRESENTATION_CONTEXT('Part 2','TOP_LEVEL_ASSEMBLY_PART')
);
#948=UNCERTAINTY_MEASURE_WITH_UNIT(LENGTH_MEASURE(1.E-8),#951,
'DISTANCE_ACCURACY_VALUE','Maximum Tolerance applied to model');
#949=(
NAMED_UNIT(*)
SI_UNIT($,.STERADIAN.)
SOLID_ANGLE_UNIT()
);
#950=(
NAMED_UNIT(*)
PLANE_ANGLE_UNIT()
SI_UNIT($,.RADIAN.)
);
#951=(
LENGTH_UNIT()
NAMED_UNIT(*)
SI_UNIT($,.METRE.)
);
#952=PRODUCT_DEFINITION_SHAPE('','',#953);
#953=PRODUCT_DEFINITION('','',#955,#954);
#954=PRODUCT_DEFINITION_CONTEXT('',#961,'design');
#955=PRODUCT_DEFINITION_FORMATION_WITH_SPECIFIED_SOURCE('','',#957,
 .NOT_KNOWN.);
#956=PRODUCT_RELATED_PRODUCT_CATEGORY('','',(#957));
#957=PRODUCT('Part 2','Part 2','Part 2',(#959));
#958=PRODUCT_CATEGORY('','');
#959=PRODUCT_CONTEXT('',#961,'mechanical');
#960=APPLICATION_PROTOCOL_DEFINITION('international standard',
'ap242_managed_model_based_3d_engineering',2020,#961);
#961=APPLICATION_CONTEXT('managed model based 3d engineering');
ENDSEC;
END-ISO-10303-21;
